<?xml version="1.0" encoding="UTF-8"?>
<!-- Generator: visioncortex VTracer 0.6.3 -->
<svg version="1.1" xmlns="http://www.w3.org/2000/svg" width="1280" height="341">
<path d="M0 0 C0.82 0.02 1.65 0.03 2.5 0.05 C3.43 0.06 4.37 0.08 5.33 0.09 C6.34 0.12 7.35 0.14 8.39 0.17 C9.43 0.19 10.47 0.21 11.53 0.23 C13.73 0.28 15.92 0.33 18.11 0.38 C21.47 0.47 24.84 0.53 28.2 0.59 C30.33 0.63 32.46 0.68 34.58 0.73 C36.1 0.76 36.1 0.76 37.65 0.79 C38.58 0.81 39.52 0.84 40.48 0.87 C41.72 0.89 41.72 0.89 42.98 0.92 C44.99 1.22 44.99 1.22 46.99 3.22 C47.29 5.54 47.29 5.54 47.37 8.41 C47.4 9.43 47.44 10.46 47.47 11.52 C47.5 12.59 47.52 13.67 47.55 14.78 C47.61 16.9 47.67 19.03 47.74 21.16 C47.77 22.1 47.79 23.05 47.82 24.02 C47.75 26.19 47.75 26.19 48.99 27.22 C49.15 28.66 49.24 30.11 49.31 31.56 C49.37 32.93 49.37 32.93 49.43 34.32 C49.47 35.29 49.51 36.27 49.55 37.28 C49.59 38.27 49.64 39.25 49.68 40.27 C50.01 48.59 50.1 56.89 49.99 65.22 C50.32 65.22 50.65 65.22 50.99 65.22 C51.32 73.8 51.65 82.38 51.99 91.22 C52.32 91.22 52.65 91.22 52.99 91.22 C53.88 99.06 53.99 106.38 52.99 114.22 C53.98 114.71 53.98 114.71 54.99 115.22 C54.98 116.04 54.97 116.87 54.95 117.72 C54.88 126.93 55.32 136.03 55.99 145.22 C56.32 145.22 56.65 145.22 56.99 145.22 C57.32 135.32 57.65 125.42 57.99 115.22 C57 114.72 57 114.72 55.99 114.22 C56.65 114.22 57.31 114.22 57.99 114.22 C57.99 111.91 57.99 109.6 57.99 107.22 C58.32 107.22 58.65 107.22 58.99 107.22 C59.05 106.46 59.11 105.7 59.17 104.92 C59.26 103.92 59.34 102.93 59.43 101.9 C59.51 100.92 59.59 99.93 59.67 98.92 C59.99 96.22 59.99 96.22 60.99 93.22 C61.2 91.82 61.39 90.43 61.55 89.03 C61.7 87.77 61.84 86.51 61.99 85.22 C62.65 85.22 63.31 85.22 63.99 85.22 C63.8 84.18 63.62 83.15 63.43 82.09 C63.02 78.45 63.21 75.76 63.99 72.22 C64.65 72.22 65.31 72.22 65.99 72.22 C65.71 71.47 65.71 71.47 65.43 70.72 C64.78 67.03 65.38 63.91 65.99 60.22 C66.32 59.89 66.65 59.56 66.99 59.22 C67.01 57.84 66.98 56.47 66.93 55.09 C66.88 50.76 67.74 47.38 68.99 43.22 C70.02 37.55 70.99 31.98 70.99 26.22 C71.65 26.22 72.31 26.22 72.99 26.22 C72.71 25.47 72.71 25.47 72.43 24.72 C71.79 21.07 72.45 17.88 72.99 14.22 C72.99 13.89 72.99 13.56 72.99 13.22 C73.21 11.73 73.46 10.25 73.74 8.78 C73.95 7.57 73.95 7.57 74.16 6.34 C74.99 4.22 74.99 4.22 76.61 2.97 C89.65 -1.17 106.47 1.11 119.99 1.22 C119.99 1.55 119.99 1.88 119.99 2.22 C126.26 2.55 132.53 2.88 138.99 3.22 C140.95 7.13 141.31 9.15 141.55 13.4 C141.46 17.13 141.46 17.13 142.99 20.22 C143.22 22.4 143.4 24.59 143.55 26.78 C143.63 27.98 143.72 29.17 143.81 30.41 C143.87 31.33 143.93 32.26 143.99 33.22 C144.32 33.22 144.65 33.22 144.99 33.22 C145.32 37.51 145.65 41.8 145.99 46.22 C146.32 46.22 146.65 46.22 146.99 46.22 C147.32 50.18 147.65 54.14 147.99 58.22 C148.32 58.22 148.65 58.22 148.99 58.22 C149.32 62.18 149.65 66.14 149.99 70.22 C150.32 70.22 150.65 70.22 150.99 70.22 C151.05 71.13 151.11 72.05 151.17 72.99 C151.26 74.18 151.34 75.37 151.43 76.59 C151.51 77.77 151.59 78.96 151.67 80.18 C151.8 83.13 151.8 83.13 152.99 85.22 C152.66 85.55 152.33 85.88 151.99 86.22 C152.32 86.22 152.65 86.22 152.99 86.22 C153.06 87.29 153.06 87.29 153.14 88.38 C153.57 93.93 154.23 98.93 155.99 104.22 C157.08 107.49 157.18 110.05 157.27 113.5 C157.33 115.38 157.33 115.38 157.38 117.3 C157.42 118.61 157.45 119.93 157.49 121.28 C157.71 129.63 157.98 137.92 158.99 146.22 C159.03 145.18 159.03 145.18 159.06 144.12 C159.18 140.97 159.3 137.81 159.43 134.65 C159.47 133.57 159.5 132.48 159.55 131.36 C159.76 125.91 160.07 120.6 160.99 115.22 C160.33 114.89 159.67 114.56 158.99 114.22 C159.65 113.89 160.31 113.56 160.99 113.22 C160.98 112.66 160.97 112.11 160.96 111.54 C160.65 93.03 160.65 93.03 162.55 85.39 C163.04 82.97 163.05 80.81 162.99 78.34 C162.87 72.94 163.4 67.7 163.99 62.34 C164.72 55.59 165.12 49 165 42.2 C164.99 38.05 165.34 33.96 165.71 29.82 C165.92 27.09 166.07 24.38 166.17 21.64 C166.2 20.85 166.24 20.05 166.27 19.23 C166.33 17.68 166.38 16.13 166.42 14.57 C166.45 13.85 166.48 13.12 166.51 12.38 C166.53 11.75 166.55 11.11 166.57 10.46 C167.19 7.13 168.59 4.3 169.99 1.22 C176.79 1.17 183.59 1.13 190.39 1.11 C192.7 1.1 195.02 1.08 197.33 1.07 C200.65 1.04 203.97 1.03 207.29 1.02 C208.33 1.01 209.37 1 210.44 0.99 C211.4 0.99 212.37 0.99 213.36 0.99 C214.63 0.98 214.63 0.98 215.93 0.98 C217.99 1.22 217.99 1.22 219.99 3.22 C220 5.37 220 5.37 219.68 8.15 C219.27 12.09 218.93 16 218.76 19.95 C218.73 20.78 218.69 21.61 218.65 22.46 C218.59 24.09 218.53 25.73 218.47 27.36 C218.28 31.81 217.64 35.69 216.45 40.01 C215.47 44.67 215.51 49.47 215.36 54.22 C215.31 55.81 215.31 55.81 215.25 57.43 C215.15 60.03 215.07 62.62 214.99 65.22 C214.66 65.22 214.33 65.22 213.99 65.22 C213.15 71.25 212.93 76.67 213.93 82.7 C213.99 85.43 213.3 87.49 212.49 90.08 C211.41 94.67 211.5 99.45 211.36 104.15 C211.32 105.22 211.29 106.28 211.25 107.38 C211.15 109.99 211.07 112.6 210.99 115.22 C210.66 115.22 210.33 115.22 209.99 115.22 C209.95 116.28 209.95 116.28 209.91 117.36 C209.8 120.56 209.67 123.76 209.55 126.97 C209.51 128.08 209.47 129.19 209.43 130.33 C209.39 131.4 209.35 132.47 209.31 133.58 C209.25 135.05 209.25 135.05 209.19 136.56 C209.01 138.92 208.57 140.93 207.99 143.22 C207.86 144.86 207.77 146.51 207.71 148.17 C207.67 149.1 207.63 150.03 207.59 150.98 C207.52 152.94 207.45 154.9 207.38 156.86 C207.35 157.78 207.31 158.71 207.27 159.67 C207.24 160.51 207.21 161.36 207.18 162.24 C206.99 164.22 206.99 164.22 205.99 165.22 C205.84 166.94 205.76 168.66 205.71 170.39 C205.67 171.44 205.63 172.5 205.59 173.59 C205.56 174.7 205.52 175.82 205.49 176.97 C205.42 179.15 205.35 181.33 205.27 183.51 C205.24 184.49 205.21 185.46 205.18 186.46 C204.99 189.13 204.52 191.59 203.99 194.22 C203.79 196.43 203.63 198.65 203.49 200.87 C203.41 202.14 203.32 203.41 203.24 204.72 C203.15 206.05 203.07 207.38 202.99 208.72 C202.83 211.33 202.66 213.95 202.49 216.56 C202.42 217.72 202.34 218.87 202.27 220.07 C202.02 222.86 201.56 225.48 200.99 228.22 C200.95 230.19 200.95 232.17 200.99 234.15 C201.03 238.3 200.89 242.15 199.99 246.22 C199.66 246.22 199.33 246.22 198.99 246.22 C199.01 247.15 199.01 247.15 199.02 248.09 C199.11 256.18 198.6 264.16 197.99 272.22 C194.62 273.34 193.38 272.96 189.99 272.22 C188.4 272.13 186.81 272.09 185.22 272.09 C184.3 272.08 183.38 272.08 182.44 272.08 C181.46 272.08 180.48 272.08 179.47 272.08 C178.45 272.08 177.43 272.08 176.38 272.08 C174.22 272.08 172.07 272.08 169.92 272.09 C166.63 272.09 163.35 272.09 160.07 272.08 C157.97 272.08 155.87 272.08 153.78 272.08 C152.8 272.08 151.83 272.08 150.82 272.08 C145.76 272.09 140.98 272.38 135.99 273.22 C134.43 273.3 132.86 273.35 131.3 273.34 C130.58 273.34 129.85 273.35 129.1 273.35 C126.95 273.21 125.06 272.8 122.99 272.22 C122.99 271.23 122.99 270.24 122.99 269.22 C122.33 268.89 121.67 268.56 120.99 268.22 C120.71 266.6 120.45 264.98 120.27 263.35 C119.97 261.08 119.49 258.89 118.99 256.65 C117.91 251.41 117.59 246.21 117.26 240.87 C116.91 236.16 116.25 231.52 115.59 226.84 C114.59 219.41 113.84 211.95 113.04 204.49 C112.92 203.37 112.8 202.24 112.67 201.08 C112.56 200.07 112.46 199.06 112.35 198.02 C112.04 195.26 112.04 195.26 111.47 192.78 C110.88 189.63 110.77 186.58 110.67 183.38 C110.63 182.09 110.59 180.8 110.55 179.47 C110.51 178.11 110.47 176.76 110.43 175.4 C110.38 174.03 110.34 172.65 110.3 171.28 C110.19 167.93 110.09 164.57 109.99 161.22 C109.33 161.22 108.67 161.22 107.99 161.22 C107.99 150.66 107.99 140.1 107.99 129.22 C107.33 129.22 106.67 129.22 105.99 129.22 C106 130.38 106.01 131.54 106.02 132.73 C106.08 140.82 105.94 148.75 105.14 156.81 C104.95 159.75 105.4 162.34 105.99 165.22 C106.08 167.89 106.03 170.54 105.99 173.22 C105.66 173.22 105.33 173.22 104.99 173.22 C105 173.85 105.01 174.47 105.02 175.12 C105.08 180.6 104.79 185.8 103.99 191.22 C103.66 191.22 103.33 191.22 102.99 191.22 C103.01 191.93 103.04 192.64 103.06 193.38 C103.14 197.72 103.21 201.46 101.99 205.65 C100.76 210.04 100.93 213.92 101.11 218.45 C100.99 221.22 100.99 221.22 100 223.11 C98.87 225.45 98.7 227.07 98.61 229.66 C98.58 230.49 98.54 231.32 98.51 232.17 C98.48 233.03 98.45 233.89 98.43 234.78 C98.37 236.49 98.3 238.2 98.23 239.91 C98.2 241.04 98.2 241.04 98.16 242.19 C97.99 244.22 97.99 244.22 96.99 247.22 C96.76 249.78 96.57 252.33 96.43 254.9 C96.36 255.96 96.36 255.96 96.3 257.03 C96.19 258.76 96.09 260.49 95.99 262.22 C95.33 262.22 94.67 262.22 93.99 262.22 C94.17 262.96 94.36 263.7 94.55 264.47 C94.98 267.17 94.84 268.66 93.99 271.22 C93.1 271.2 92.21 271.17 91.3 271.15 C88.13 271.11 88.13 271.11 85.64 271.72 C82.75 272.26 80.15 272.29 77.2 272.22 C76.07 272.2 74.93 272.18 73.76 272.15 C72.54 272.12 71.32 272.09 70.07 272.06 C68.18 272.02 68.18 272.02 66.26 271.98 C62.25 271.9 58.25 271.81 54.24 271.72 C48.95 271.6 43.67 271.48 38.38 271.37 C37.15 271.34 35.93 271.31 34.66 271.28 C33.54 271.26 32.41 271.23 31.26 271.21 C30.26 271.19 29.26 271.16 28.24 271.14 C26.02 270.96 26.02 270.96 24.99 272.22 C22.99 272.26 20.99 272.26 18.99 272.22 C15.61 255.5 14.93 238.21 13.99 221.22 C13.66 221.22 13.33 221.22 12.99 221.22 C12.49 209.34 12.49 209.34 11.99 197.22 C11.66 197.22 11.33 197.22 10.99 197.22 C10.96 196.59 10.94 195.96 10.91 195.32 C10.8 192.49 10.67 189.67 10.55 186.84 C10.49 185.36 10.49 185.36 10.43 183.86 C10.37 182.45 10.37 182.45 10.31 181.01 C10.27 180.14 10.23 179.27 10.19 178.37 C10.11 176.17 10.11 176.17 8.99 174.22 C9.65 174.22 10.31 174.22 10.99 174.22 C10.33 173.56 9.67 172.9 8.99 172.22 C8.69 170 8.69 170 8.61 167.28 C8.56 165.81 8.56 165.81 8.51 164.32 C8.48 163.29 8.45 162.27 8.43 161.22 C8.37 159.2 8.3 157.17 8.23 155.15 C8.21 154.26 8.19 153.36 8.16 152.43 C8.13 150.18 8.13 150.18 6.99 148.22 C6.94 146.71 6.94 145.19 6.98 143.68 C7.03 138.64 6.65 133.74 6.11 128.73 C4.85 116.18 3.92 103.61 2.99 91.03 C2.82 88.79 2.66 86.55 2.49 84.32 C2.41 83.21 2.32 82.1 2.24 80.96 C2.07 78.74 1.91 76.52 1.74 74.3 C1.3 68.46 0.87 62.62 0.45 56.78 C0.28 54.39 0.1 52 -0.07 49.6 C-0.15 48.47 -0.23 47.35 -0.31 46.18 C-0.39 45.15 -0.47 44.12 -0.55 43.06 C-0.61 42.15 -0.68 41.23 -0.75 40.29 C-0.79 38.23 -0.79 38.23 -2.01 37.22 C-2.1 35.51 -2.12 33.8 -2.11 32.09 C-2.11 31.05 -2.1 30.02 -2.1 28.95 C-2.09 27.86 -2.08 26.78 -2.07 25.65 C-2.07 24.56 -2.06 23.47 -2.06 22.34 C-2.05 19.63 -2.03 16.92 -2.01 14.22 C-2.67 14.22 -3.33 14.22 -4.01 14.22 C-4.07 12.26 -4.1 10.3 -4.14 8.34 C-4.16 7.25 -4.18 6.16 -4.21 5.04 C-3.98 1.73 -3.46 0.37 0 0 Z M215.99 4.22 C216.98 5.7 216.98 5.7 217.99 7.22 C217.99 6.23 217.99 5.24 217.99 4.22 C217.33 4.22 216.67 4.22 215.99 4.22 Z M216.99 9.22 C216.99 10.87 216.99 12.52 216.99 14.22 C217.32 14.22 217.65 14.22 217.99 14.22 C217.99 12.57 217.99 10.92 217.99 9.22 C217.66 9.22 217.33 9.22 216.99 9.22 Z M139.99 20.22 C140.99 24.22 140.99 24.22 140.99 24.22 Z M45.99 26.22 C45.99 27.87 45.99 29.52 45.99 31.22 C46.32 31.22 46.65 31.22 46.99 31.22 C46.99 29.57 46.99 27.92 46.99 26.22 C46.66 26.22 46.33 26.22 45.99 26.22 Z M46.99 31.22 C46.99 32.87 46.99 34.52 46.99 36.22 C47.32 36.22 47.65 36.22 47.99 36.22 C47.99 34.57 47.99 32.92 47.99 31.22 C47.66 31.22 47.33 31.22 46.99 31.22 Z M142.99 38.22 C143.99 40.22 143.99 40.22 143.99 40.22 Z M212.99 52.22 C212.99 55.19 212.99 58.16 212.99 61.22 C213.32 61.22 213.65 61.22 213.99 61.22 C213.99 58.25 213.99 55.28 213.99 52.22 C213.66 52.22 213.33 52.22 212.99 52.22 Z M210.99 75.22 C210.99 77.2 210.99 79.18 210.99 81.22 C211.32 81.22 211.65 81.22 211.99 81.22 C211.99 79.24 211.99 77.26 211.99 75.22 C211.66 75.22 211.33 75.22 210.99 75.22 Z M210.99 86.22 C210.99 87.87 210.99 89.52 210.99 91.22 C211.32 91.22 211.65 91.22 211.99 91.22 C211.99 89.57 211.99 87.92 211.99 86.22 C211.66 86.22 211.33 86.22 210.99 86.22 Z M150.99 89.22 C150.99 91.53 150.99 93.84 150.99 96.22 C151.32 96.22 151.65 96.22 151.99 96.22 C151.99 93.91 151.99 91.6 151.99 89.22 C151.66 89.22 151.33 89.22 150.99 89.22 Z M152.99 99.22 C152.99 101.2 152.99 103.18 152.99 105.22 C153.32 105.22 153.65 105.22 153.99 105.22 C153.99 103.24 153.99 101.26 153.99 99.22 C153.66 99.22 153.33 99.22 152.99 99.22 Z M208.99 103.22 C208.99 104.87 208.99 106.52 208.99 108.22 C209.32 108.22 209.65 108.22 209.99 108.22 C209.99 106.57 209.99 104.92 209.99 103.22 C209.66 103.22 209.33 103.22 208.99 103.22 Z M154.99 107.22 C154.99 109.2 154.99 111.18 154.99 113.22 C155.32 113.22 155.65 113.22 155.99 113.22 C155.99 111.24 155.99 109.26 155.99 107.22 C155.66 107.22 155.33 107.22 154.99 107.22 Z M204.99 150.22 C205.99 154.22 205.99 154.22 205.99 154.22 Z M203.99 156.22 C203.99 158.53 203.99 160.84 203.99 163.22 C204.32 163.22 204.65 163.22 204.99 163.22 C204.99 160.91 204.99 158.6 204.99 156.22 C204.66 156.22 204.33 156.22 203.99 156.22 Z M103.99 165.22 C104.99 167.22 104.99 167.22 104.99 167.22 Z M199.99 207.22 C199.99 209.53 199.99 211.84 199.99 214.22 C200.32 214.22 200.65 214.22 200.99 214.22 C200.99 211.91 200.99 209.6 200.99 207.22 C200.66 207.22 200.33 207.22 199.99 207.22 Z M199.99 216.22 C200.99 220.22 200.99 220.22 200.99 220.22 Z M92.99 257.22 C92.99 258.87 92.99 260.52 92.99 262.22 C93.32 262.22 93.65 262.22 93.99 262.22 C93.99 260.57 93.99 258.92 93.99 257.22 C93.66 257.22 93.33 257.22 92.99 257.22 Z M127.99 270.22 C127.66 270.88 127.33 271.54 126.99 272.22 C127.65 272.22 128.31 272.22 128.99 272.22 C128.66 271.56 128.33 270.9 127.99 270.22 Z M129.99 271.22 C129.99 271.55 129.99 271.88 129.99 272.22 C131.97 272.22 133.95 272.22 135.99 272.22 C135.99 271.89 135.99 271.56 135.99 271.22 C134.01 271.22 132.03 271.22 129.99 271.22 Z " fill="#0049AC" transform="translate(121.0113525390625,27.78399658203125)"/>
<path d="M0 0 C8.58 0 17.16 0 26 0 C26 1.65 26 3.3 26 5 C26.64 5.29 27.28 5.58 27.94 5.88 C30 7 30 7 31 9 C31.83 9.58 32.65 10.16 33.5 10.75 C36.51 13.46 36.73 15.04 37 19 C37.6 19.04 38.2 19.08 38.81 19.12 C42.09 20.44 42.5 22.88 44 26 C44.87 26.87 45.73 27.73 46.62 28.62 C49.04 31.04 49.35 31.84 50 35 C50.99 35.66 51.98 36.32 53 37 C54.19 39.12 54.19 39.12 55 41 C55.66 41 56.32 41 57 41 C57 41.66 57 42.32 57 43 C57.66 43.66 58.32 44.32 59 45 C61 47 61 47 61 49 C61.66 49 62.32 49 63 49 C62.67 50.32 62.34 51.64 62 53 C62.99 53 63.98 53 65 53 C65 53.66 65 54.32 65 55 C66.49 55.5 66.49 55.5 68 56 C69.19 58.56 69.19 58.56 70 61 C70.66 61 71.32 61 72 61 C75 66.75 75 66.75 75 69 C76.18 69.68 76.18 69.68 77.38 70.38 C80.14 72.09 80.93 72.99 82 76 C82 76.66 82 77.32 82 78 C82.6 78.25 83.2 78.5 83.81 78.75 C86.34 80.19 87.5 81.53 89 84 C89 84.99 89 85.98 89 87 C89.66 87.33 90.32 87.66 91 88 C91.99 89.49 91.99 89.49 93 91 C93.66 91 94.32 91 95 91 C95.33 60.97 95.66 30.94 96 0 C103.92 0 111.84 0 120 0 C120.33 45.54 120.66 91.08 121 138 C113.08 138 105.16 138 97 138 C94 134 94 134 94 132 C93.34 132 92.68 132 92 132 C90.37 129.93 88.86 127.86 87.38 125.69 C86.47 124.4 85.57 123.1 84.66 121.81 C84.21 121.17 83.76 120.52 83.3 119.86 C78.59 113.12 73.68 106.55 68.61 100.07 C62 91.56 62 91.56 62 89 C61.34 89 60.68 89 60 89 C58.48 87.09 58.48 87.09 56.75 84.5 C53.98 80.42 51.11 76.47 48.07 72.59 C47 71 47 71 47 69 C46.34 69 45.68 69 45 69 C45 68.01 45 67.02 45 66 C44.34 66 43.68 66 43 66 C41.49 64.1 41.49 64.1 39.88 61.62 C39.34 60.81 38.8 60 38.24 59.16 C37 57 37 57 37 55 C36.34 55 35.68 55 35 55 C33.53 53.39 33.53 53.39 31.94 51.25 C31.41 50.55 30.88 49.86 30.34 49.14 C29.03 47.05 28.44 45.41 28 43 C27.34 43 26.68 43 26 43 C26 44.16 26 45.32 26.01 46.52 C26.03 57.44 26.04 68.35 26.05 79.27 C26.06 84.89 26.06 90.5 26.08 96.12 C26.09 101.53 26.09 106.94 26.09 112.36 C26.1 114.43 26.1 116.5 26.11 118.57 C26.11 121.46 26.11 124.35 26.11 127.24 C26.12 128.1 26.12 128.96 26.12 129.85 C26.11 135.77 26.11 135.77 25 138 C17.41 138 9.82 138 2 138 C0.03 134.05 -0.25 132.65 -0.24 128.43 C-0.24 127.3 -0.25 126.17 -0.25 125 C-0.24 123.76 -0.23 122.52 -0.23 121.25 C-0.23 119.94 -0.23 118.63 -0.23 117.28 C-0.23 113.7 -0.22 110.12 -0.2 106.54 C-0.19 102.79 -0.19 99.05 -0.19 95.3 C-0.18 88.21 -0.16 81.12 -0.14 74.03 C-0.12 65.96 -0.11 57.89 -0.1 49.81 C-0.08 33.21 -0.04 16.6 0 0 Z M24 47 C25 49 25 49 25 49 Z M96 91 C95.67 91.99 95.34 92.98 95 94 C95.66 94 96.32 94 97 94 C96.67 93.01 96.34 92.02 96 91 Z " fill="#0F0F11" transform="translate(812,112)"/>
<path d="M0 0 C33 0 66 0 100 0 C99.67 0.66 99.34 1.32 99 2 C99.33 8.6 99.66 15.2 100 22 C75.58 22 51.16 22 26 22 C26.33 32.89 26.66 43.78 27 55 C47.46 55.33 67.92 55.66 89 56 C89.33 56.66 89.66 57.32 90 58 C91.49 58.5 91.49 58.5 93 59 C92.67 65.6 92.34 72.2 92 79 C70.55 79.33 49.1 79.66 27 80 C27 91.88 27 103.76 27 116 C34.85 115.98 34.85 115.98 42.86 115.96 C46.18 115.96 49.49 115.95 52.8 115.95 C58.06 115.95 63.32 115.94 68.58 115.92 C72.83 115.91 77.07 115.91 81.31 115.91 C82.93 115.9 84.54 115.9 86.16 115.89 C88.43 115.89 90.69 115.89 92.96 115.89 C94.25 115.88 95.54 115.88 96.87 115.88 C100 116 100 116 103 117 C103 124 103 131 103 138 C69.67 138 36.34 138 2 138 C0.03 134.05 -0.25 132.65 -0.24 128.43 C-0.24 127.3 -0.25 126.17 -0.25 125 C-0.24 123.76 -0.23 122.52 -0.23 121.25 C-0.23 119.94 -0.23 118.63 -0.23 117.28 C-0.23 113.7 -0.22 110.12 -0.2 106.54 C-0.19 102.79 -0.19 99.05 -0.19 95.3 C-0.18 88.21 -0.16 81.12 -0.14 74.03 C-0.12 64.45 -0.11 54.87 -0.1 45.28 C-0.08 30.19 -0.04 15.09 0 0 Z M25 20 C25 20.33 25 20.66 25 21 C27.64 21 30.28 21 33 21 C33 20.67 33 20.34 33 20 C30.36 20 27.72 20 25 20 Z M50 20 C54 21 54 21 54 21 Z M90 20 C90 20.33 90 20.66 90 21 C92.97 21 95.94 21 99 21 C99 20.67 99 20.34 99 20 C96.03 20 93.06 20 90 20 Z M24 47 C25 49 25 49 25 49 Z M24 53 C25 55 25 55 25 55 Z M90 73 C91 75 91 75 91 75 Z M24 84 C25 86 25 86 25 86 Z M24 95 C25 97 25 97 25 97 Z M24 99 C25 101 25 101 25 101 Z M24 108 C24 109.65 24 111.3 24 113 C24.33 113 24.66 113 25 113 C25 111.35 25 109.7 25 108 C24.67 108 24.34 108 24 108 Z M101 118 C102 121 102 121 102 121 Z " fill="#050507" transform="translate(381,112)"/>
<path d="M0 0 C32.67 0.33 65.34 0.66 99 1 C98.67 1.66 98.34 2.32 98 3 C98 9.6 98 16.2 98 23 C62.36 23.5 62.36 23.5 26 24 C26 35.55 26 47.1 26 59 C32.88 58.95 32.88 58.95 39.89 58.89 C42.8 58.88 45.7 58.86 48.6 58.85 C53.21 58.84 57.82 58.81 62.43 58.77 C66.15 58.74 69.86 58.72 73.58 58.72 C74.99 58.71 76.41 58.7 77.83 58.68 C79.81 58.66 81.8 58.66 83.78 58.66 C85.48 58.65 85.48 58.65 87.21 58.64 C90 59 90 59 91.87 60.28 C93.84 63.27 93.3 66.74 93.19 70.19 C93.17 71.31 93.17 71.31 93.15 72.46 C93.11 74.31 93.06 76.15 93 78 C92.34 78 91.68 78 91 78 C90.67 78.66 90.34 79.32 90 80 C90 79.34 90 78.68 90 78 C89.01 78.66 88.02 79.32 87 80 C84.32 80.24 84.32 80.24 81.06 80.23 C79.23 80.23 79.23 80.23 77.36 80.23 C76.04 80.22 74.72 80.21 73.36 80.2 C72 80.19 70.64 80.19 69.27 80.19 C65.69 80.18 62.1 80.16 58.52 80.14 C54.86 80.12 51.2 80.11 47.54 80.1 C40.36 80.08 33.18 80.04 26 80 C25.98 84.97 25.96 89.93 25.95 94.9 C25.94 96.59 25.93 98.28 25.92 99.97 C25.91 102.4 25.91 104.82 25.9 107.25 C25.9 108.01 25.89 108.77 25.89 109.55 C25.89 111.37 25.94 113.18 26 115 C27.9 116.9 31.26 116.16 33.78 116.19 C34.49 116.2 35.2 116.21 35.93 116.21 C37.48 116.23 39.02 116.25 40.56 116.26 C43.01 116.28 45.45 116.31 47.89 116.34 C53.07 116.4 58.25 116.45 63.44 116.5 C69.44 116.56 75.44 116.62 81.44 116.69 C83.85 116.72 86.26 116.74 88.67 116.76 C90.14 116.78 91.61 116.79 93.09 116.81 C95.02 116.83 95.02 116.83 96.99 116.85 C100 117 100 117 102 118 C102.05 120.77 102.09 123.54 102.12 126.31 C102.14 127.1 102.16 127.88 102.18 128.69 C102.18 129.45 102.19 130.21 102.2 130.99 C102.21 131.68 102.22 132.38 102.23 133.1 C102 135 102 135 100 138 C100.66 138.33 101.32 138.66 102 139 C68.67 139 35.34 139 1 139 C1.66 138.67 2.32 138.34 3 138 C2.27 137.43 2.27 137.43 1.52 136.84 C-0.56 134.33 -0.37 132.75 -0.36 129.51 C-0.36 128.37 -0.37 127.23 -0.37 126.06 C-0.36 124.81 -0.35 123.56 -0.34 122.27 C-0.34 120.95 -0.34 119.63 -0.34 118.28 C-0.34 114.66 -0.33 111.05 -0.3 107.44 C-0.29 103.66 -0.28 99.88 -0.28 96.11 C-0.27 88.96 -0.25 81.81 -0.22 74.66 C-0.18 65 -0.16 55.33 -0.14 45.67 C-0.11 30.45 -0.05 15.22 0 0 Z M37 21 C37 21.33 37 21.66 37 22 C40.96 22 44.92 22 49 22 C49 21.67 49 21.34 49 21 C45.04 21 41.08 21 37 21 Z M88 21 C92 22 92 22 92 22 Z M23 48 C24 50 24 50 24 50 Z M23 53 C24 56 24 56 24 56 Z M90 63 C91 65 91 65 91 65 Z M24 79 C25 81 25 81 25 81 Z M23 94 C24 96 24 96 24 96 Z M23 103 C24 105 24 105 24 105 Z M100 124 C101 126 101 126 101 126 Z " fill="#0D0C0F" transform="translate(661,111)"/>
<path d="M0 0 C7.92 0.33 15.84 0.66 24 1 C25.19 3.38 25.14 4.84 25.16 7.49 C25.17 8.44 25.18 9.38 25.19 10.36 C25.2 11.92 25.2 11.92 25.21 13.51 C25.22 14.6 25.23 15.69 25.24 16.82 C25.27 20.44 25.29 24.07 25.32 27.7 C25.34 30.2 25.36 32.71 25.38 35.22 C25.43 41.16 25.47 47.09 25.52 53.03 C25.58 61.63 25.65 70.24 25.72 78.84 C25.82 90.89 25.91 102.95 26 115 C44.81 115.33 63.62 115.66 83 116 C83.5 127.38 83.5 127.38 84 139 C73.47 139.02 62.95 139.04 52.42 139.05 C47.53 139.06 42.65 139.06 37.76 139.08 C33.04 139.09 28.33 139.09 23.62 139.09 C21.82 139.1 20.01 139.1 18.21 139.11 C15.7 139.11 13.18 139.11 10.66 139.11 C9.54 139.12 9.54 139.12 8.39 139.12 C3.23 139.11 3.23 139.11 1 138 C-0.03 134.9 -0.12 132.77 -0.12 129.51 C-0.12 128.37 -0.12 127.23 -0.12 126.06 C-0.12 124.81 -0.12 123.56 -0.11 122.27 C-0.11 120.95 -0.11 119.63 -0.11 118.28 C-0.11 114.66 -0.11 111.05 -0.1 107.44 C-0.1 103.66 -0.09 99.88 -0.09 96.11 C-0.09 88.96 -0.08 81.81 -0.07 74.66 C-0.06 66.52 -0.06 58.38 -0.05 50.24 C-0.04 33.49 -0.02 16.75 0 0 Z M23 15 C24 19 24 19 24 19 Z M23 26 C23 30.62 23 35.24 23 40 C23.33 40 23.66 40 24 40 C24 35.38 24 30.76 24 26 C23.67 26 23.34 26 23 26 Z M23 47 C24 51 24 51 24 51 Z M23 53 C23 55.97 23 58.94 23 62 C23.33 62 23.66 62 24 62 C24 59.03 24 56.06 24 53 C23.67 53 23.34 53 23 53 Z M23 64 C24 68 24 68 24 68 Z M23 75 C24 79 24 79 24 79 Z M23 107 C23 108.98 23 110.96 23 113 C23.33 113 23.66 113 24 113 C24 111.02 24 109.04 24 107 C23.67 107 23.34 107 23 107 Z " fill="#101012" transform="translate(533,111)"/>
<path d="M0 0 C1.98 0.99 3.96 1.98 6 3 C6.05 4.13 6.1 5.26 6.15 6.42 C6.54 14.91 7.08 23.36 7.94 31.81 C8.79 40.22 9.4 48.63 9.94 57.06 C10.66 68.34 11.49 79.61 12.44 90.88 C12.5 91.64 12.57 92.41 12.63 93.2 C13.37 102.03 14.17 110.85 15.03 119.66 C16.21 131.81 17.25 143.97 18.2 156.14 C18.25 156.83 18.3 157.51 18.36 158.22 C18.9 165.19 19.43 172.17 19.96 179.15 C21.13 194.6 22.45 210.02 23.97 225.44 C24.85 234.29 25.62 243.13 26.19 252 C26.27 253.18 26.35 254.37 26.44 255.59 C26.8 261.07 27.1 266.51 27 272 C25.02 272 23.04 272 21 272 C17.62 255.29 16.94 237.99 16 221 C15.67 221 15.34 221 15 221 C14.5 209.12 14.5 209.12 14 197 C13.67 197 13.34 197 13 197 C12.97 196.37 12.95 195.75 12.92 195.1 C12.81 192.28 12.69 189.45 12.56 186.62 C12.5 185.15 12.5 185.15 12.44 183.64 C12.38 182.23 12.38 182.23 12.32 180.79 C12.28 179.92 12.24 179.05 12.21 178.15 C12.13 175.95 12.13 175.95 11 174 C11.66 174 12.32 174 13 174 C12.34 173.34 11.68 172.68 11 172 C10.7 169.79 10.7 169.79 10.62 167.06 C10.57 165.6 10.57 165.6 10.52 164.1 C10.49 163.08 10.46 162.05 10.44 161 C10.38 158.98 10.31 156.96 10.25 154.94 C10.22 154.04 10.2 153.14 10.17 152.21 C10.14 149.96 10.14 149.96 9 148 C8.95 146.49 8.96 144.98 8.99 143.47 C9.04 138.42 8.66 133.52 8.12 128.51 C6.86 115.96 5.93 103.39 5 90.81 C4.83 88.57 4.67 86.34 4.5 84.1 C4.42 82.99 4.33 81.88 4.25 80.74 C4.08 78.52 3.92 76.31 3.75 74.09 C3.31 68.25 2.88 62.41 2.46 56.57 C2.29 54.17 2.11 51.78 1.94 49.39 C1.86 48.26 1.78 47.13 1.7 45.97 C1.62 44.94 1.54 43.91 1.46 42.84 C1.4 41.93 1.33 41.02 1.27 40.07 C1.22 38.01 1.22 38.01 0 37 C-0.09 35.29 -0.11 33.58 -0.1 31.87 C-0.09 30.84 -0.09 29.8 -0.09 28.74 C-0.08 27.65 -0.07 26.56 -0.06 25.44 C-0.06 24.35 -0.05 23.25 -0.05 22.13 C-0.04 19.42 -0.02 16.71 0 14 C-0.66 14 -1.32 14 -2 14 C-2.05 12.04 -2.09 10.08 -2.12 8.12 C-2.15 7.03 -2.17 5.94 -2.2 4.82 C-2 2 -2 2 0 0 Z " fill="#1FEAF4" transform="translate(119,28)"/>
<path d="M0 0 C2.33 -0.04 4.67 -0.04 7 0 C7.33 0.33 7.66 0.66 8 1 C7.93 2.63 7.79 4.25 7.62 5.88 C7.25 9.83 6.95 13.77 6.78 17.74 C6.74 18.57 6.7 19.4 6.67 20.25 C6.6 21.88 6.54 23.51 6.48 25.15 C6.29 29.59 5.65 33.48 4.47 37.79 C3.48 42.45 3.52 47.25 3.38 52 C3.34 53.06 3.3 54.12 3.26 55.21 C3.16 57.81 3.08 60.4 3 63 C2.67 63 2.34 63 2 63 C1.17 69.04 0.95 74.45 1.94 80.48 C2 83.21 1.31 85.28 0.5 87.86 C-0.58 92.46 -0.48 97.24 -0.62 101.94 C-0.66 103 -0.7 104.07 -0.74 105.17 C-0.84 107.78 -0.92 110.39 -1 113 C-1.33 113 -1.66 113 -2 113 C-2.03 113.71 -2.05 114.41 -2.08 115.14 C-2.19 118.34 -2.31 121.55 -2.44 124.75 C-2.48 125.86 -2.52 126.97 -2.56 128.12 C-2.6 129.19 -2.64 130.26 -2.68 131.36 C-2.72 132.34 -2.76 133.33 -2.79 134.34 C-2.98 136.71 -3.42 138.72 -4 141 C-4.13 142.65 -4.22 144.3 -4.28 145.95 C-4.32 146.88 -4.36 147.81 -4.39 148.77 C-4.47 150.73 -4.54 152.68 -4.61 154.64 C-4.64 155.57 -4.68 156.49 -4.72 157.45 C-4.76 158.72 -4.76 158.72 -4.81 160.02 C-5 162 -5 162 -6 163 C-6.15 164.72 -6.23 166.45 -6.28 168.17 C-6.32 169.23 -6.36 170.29 -6.39 171.38 C-6.43 172.49 -6.46 173.6 -6.5 174.75 C-6.57 176.93 -6.64 179.11 -6.72 181.3 C-6.75 182.27 -6.78 183.24 -6.81 184.25 C-6.99 186.92 -7.47 189.38 -8 192 C-8.2 194.22 -8.36 196.44 -8.5 198.66 C-8.58 199.93 -8.67 201.2 -8.75 202.5 C-8.83 203.84 -8.92 205.17 -9 206.5 C-9.16 209.11 -9.33 211.73 -9.5 214.34 C-9.57 215.5 -9.64 216.66 -9.72 217.85 C-9.97 220.64 -10.43 223.26 -11 226 C-11.04 227.98 -11.04 229.96 -11 231.94 C-10.96 236.09 -11.1 239.93 -12 244 C-12.33 244 -12.66 244 -13 244 C-12.99 244.62 -12.98 245.24 -12.96 245.88 C-12.88 253.96 -13.39 261.94 -14 270 C-17 271 -17 271 -20 270 C-21.04 266.88 -21.1 264.7 -21.06 261.44 C-21.05 260.47 -21.04 259.5 -21.04 258.5 C-21.02 257.67 -21.01 256.85 -21 256 C-21 255.34 -21 254.68 -21 254 C-20.78 252.06 -20.57 250.12 -20.34 248.19 C-18.85 235.43 -17.75 222.75 -18.12 209.9 C-18.21 205.2 -17.3 201.48 -16 197 C-15.48 193.41 -15.17 189.81 -14.88 186.19 C-14.79 185.18 -14.7 184.17 -14.61 183.13 C-14.05 176.05 -13.83 169.03 -14.07 161.94 C-14.18 157.68 -13.64 154.15 -12.52 150.1 C-11.56 146.22 -11.24 142.28 -10.88 138.31 C-10.79 137.41 -10.7 136.51 -10.61 135.58 C-9.96 128.11 -9.86 120.69 -10.07 113.19 C-10.18 108.26 -9.69 103.95 -8.51 99.15 C-7.71 95.78 -7.34 92.38 -7 88.94 C-6.92 88.16 -6.84 87.38 -6.75 86.57 C-5.88 77.62 -5.4 68.65 -4.88 59.67 C-4.45 52.38 -4.02 45.12 -3 37.88 C-2.31 32.71 -1.78 27.59 -1.43 22.38 C-1.36 21.36 -1.36 21.36 -1.29 20.32 C-0.83 13.55 -0.41 6.78 0 0 Z M4 2 C4.99 3.48 4.99 3.48 6 5 C6 4.01 6 3.02 6 2 C5.34 2 4.68 2 4 2 Z M5 7 C5 8.65 5 10.3 5 12 C5.33 12 5.66 12 6 12 C6 10.35 6 8.7 6 7 C5.67 7 5.34 7 5 7 Z M1 50 C1 52.97 1 55.94 1 59 C1.33 59 1.66 59 2 59 C2 56.03 2 53.06 2 50 C1.67 50 1.34 50 1 50 Z M-1 73 C-1 74.98 -1 76.96 -1 79 C-0.67 79 -0.34 79 0 79 C0 77.02 0 75.04 0 73 C-0.33 73 -0.66 73 -1 73 Z M-1 84 C-1 85.65 -1 87.3 -1 89 C-0.67 89 -0.34 89 0 89 C0 87.35 0 85.7 0 84 C-0.33 84 -0.66 84 -1 84 Z M-3 101 C-3 102.65 -3 104.3 -3 106 C-2.67 106 -2.34 106 -2 106 C-2 104.35 -2 102.7 -2 101 C-2.33 101 -2.66 101 -3 101 Z M-7 148 C-6 152 -6 152 -6 152 Z M-8 154 C-8 156.31 -8 158.62 -8 161 C-7.67 161 -7.34 161 -7 161 C-7 158.69 -7 156.38 -7 154 C-7.33 154 -7.66 154 -8 154 Z M-12 205 C-12 207.31 -12 209.62 -12 212 C-11.67 212 -11.34 212 -11 212 C-11 209.69 -11 207.38 -11 205 C-11.33 205 -11.66 205 -12 205 Z M-12 214 C-11 218 -11 218 -11 218 Z " fill="#D031E9" transform="translate(333,30)"/>
<path d="M0 0 C2.31 0.33 4.62 0.66 7 1 C6.63 6.45 6.26 11.9 5.89 17.35 C5.75 19.33 5.62 21.31 5.49 23.29 C4.73 34.39 3.97 45.49 3.17 56.58 C2 72.77 0.85 88.92 0.34 105.15 C0.11 112.18 -0.36 119.17 -0.94 126.19 C-1.88 137.57 -2.54 148.97 -3.12 160.38 C-3.17 161.21 -3.21 162.05 -3.26 162.91 C-3.86 173.79 -3.86 173.79 -3.96 184.68 C-3.88 194.71 -4.82 204.75 -5.5 214.75 C-5.64 216.91 -5.79 219.07 -5.93 221.23 C-6.28 226.49 -6.64 231.75 -7 237 C-8.65 237 -10.3 237 -12 237 C-13.86 233.29 -13.19 228.84 -13.19 224.75 C-13.19 223.68 -13.19 222.61 -13.19 221.51 C-13.14 213.24 -12.64 205.06 -12 196.81 C-10.65 179.21 -10.81 161.64 -11 144 C-10.67 144 -10.34 144 -10 144 C-9.97 143.31 -9.95 142.62 -9.92 141.91 C-9.81 138.75 -9.68 135.59 -9.56 132.44 C-9.52 131.35 -9.48 130.27 -9.44 129.15 C-9.23 123.7 -8.92 118.38 -8 113 C-8.66 112.67 -9.32 112.34 -10 112 C-9.01 111.5 -9.01 111.5 -8 111 C-8.01 110.45 -8.02 109.89 -8.03 109.32 C-8.34 90.81 -8.34 90.81 -6.44 83.18 C-5.95 80.75 -5.94 78.59 -6 76.12 C-6.12 70.72 -5.59 65.49 -5 60.12 C-4.27 53.37 -3.87 46.79 -3.99 39.98 C-4 35.83 -3.64 31.74 -3.28 27.61 C-3.07 24.87 -2.9 22.14 -2.78 19.39 C-2.74 18.59 -2.71 17.79 -2.67 16.97 C-2.6 15.4 -2.54 13.83 -2.48 12.27 C-2.28 7.85 -1.63 4.17 0 0 Z " fill="#10EAF6" transform="translate(290,30)"/>
<path d="M0 0 C0.66 0.33 1.32 0.66 2 1 C1.67 1.66 1.34 2.32 1 3 C2.32 3 3.64 3 5 3 C4.36 14.27 2.54 25.36 0.81 36.5 C0.5 38.54 0.19 40.59 -0.13 42.63 C-2.32 56.88 -4.62 71.1 -7.05 85.3 C-7.71 89.2 -8.36 93.1 -9 97 C-9.28 98.64 -9.28 98.64 -9.58 100.31 C-11.36 111.36 -11.62 122.46 -12 133.62 C-12.08 135.86 -12.16 138.09 -12.24 140.32 C-12.73 153.98 -13.14 167.63 -13.54 181.29 C-13.56 182.06 -13.58 182.83 -13.6 183.63 C-13.82 191.29 -14.04 198.96 -14.24 206.62 C-14.32 209.49 -14.4 212.36 -14.48 215.24 C-14.53 217.21 -14.58 219.19 -14.63 221.17 C-14.79 226.85 -15 232.39 -16 238 C-17.65 237.67 -19.3 237.34 -21 237 C-22.58 231.61 -22.94 228.56 -22 223 C-20.44 207.28 -20.88 191.4 -20.93 175.63 C-20.94 171.94 -20.95 168.25 -20.95 164.56 C-20.96 157.38 -20.98 150.19 -21 143 C-20.67 143 -20.34 143 -20 143 C-19.67 133.1 -19.34 123.2 -19 113 C-19.66 112.67 -20.32 112.34 -21 112 C-20.34 112 -19.68 112 -19 112 C-19 109.69 -19 107.38 -19 105 C-18.67 105 -18.34 105 -18 105 C-17.94 104.24 -17.88 103.48 -17.82 102.7 C-17.73 101.71 -17.65 100.71 -17.56 99.69 C-17.48 98.7 -17.4 97.72 -17.32 96.7 C-17 94 -17 94 -16 91 C-15.78 89.61 -15.6 88.21 -15.44 86.81 C-15.29 85.55 -15.15 84.3 -15 83 C-14.34 83 -13.68 83 -13 83 C-13.28 81.45 -13.28 81.45 -13.56 79.88 C-13.97 76.24 -13.78 73.55 -13 70 C-12.34 70 -11.68 70 -11 70 C-11.19 69.5 -11.37 69.01 -11.56 68.5 C-12.21 64.82 -11.6 61.69 -11 58 C-10.5 57.5 -10.5 57.5 -10 57 C-9.98 55.62 -10.01 54.25 -10.06 52.88 C-10.11 48.55 -9.25 45.16 -8 41 C-6.97 35.33 -6 29.77 -6 24 C-5.34 24 -4.68 24 -4 24 C-4.19 23.5 -4.37 23.01 -4.56 22.5 C-5.2 18.85 -4.54 15.66 -4 12 C-4 11.67 -4 11.34 -4 11 C-3.73 9.52 -3.43 8.04 -3.12 6.56 C-2.96 5.76 -2.8 4.96 -2.63 4.13 C-2 2 -2 2 0 0 Z " fill="#18EAF5" transform="translate(198,30)"/>
<path d="M0 0 C2.97 0.49 2.97 0.49 6 1 C7.11 5.07 7.28 9.07 7.45 13.26 C7.48 14.1 7.52 14.93 7.56 15.79 C7.68 18.56 7.79 21.34 7.9 24.11 C7.99 26.07 8.07 28.03 8.15 29.99 C8.37 35.19 8.59 40.39 8.81 45.59 C9.15 53.75 9.49 61.92 9.84 70.08 C9.92 72.1 10.01 74.12 10.09 76.14 C10.77 92.16 11.53 108.17 12.36 124.18 C12.74 131.62 13.1 139.06 13.35 146.51 C13.78 158.78 15.31 170.85 17 183 C17.25 184.78 17.25 184.78 17.5 186.6 C18.19 191.6 18.88 196.6 19.58 201.59 C20.54 208.51 21.46 215.43 22.25 222.38 C22.33 223.06 22.41 223.75 22.49 224.46 C22.95 228.66 23.07 232.78 23 237 C21.35 237.33 19.7 237.66 18 238 C18 237.01 18 236.02 18 235 C17.34 234.67 16.68 234.34 16 234 C15.72 232.38 15.47 230.76 15.28 229.13 C14.98 226.86 14.5 224.67 14 222.44 C12.92 217.19 12.6 211.99 12.27 206.66 C11.92 201.94 11.26 197.3 10.61 192.62 C9.6 185.19 8.85 177.73 8.05 170.28 C7.93 169.15 7.81 168.03 7.68 166.87 C7.52 165.35 7.52 165.35 7.36 163.81 C7.05 161.05 7.05 161.05 6.48 158.56 C5.89 155.41 5.78 152.37 5.68 149.17 C5.64 147.88 5.6 146.58 5.56 145.25 C5.52 143.9 5.48 142.54 5.44 141.19 C5.39 139.81 5.35 138.44 5.31 137.06 C5.2 133.71 5.1 130.35 5 127 C4.34 127 3.68 127 3 127 C3 113.8 3 100.6 3 87 C2.67 87 2.34 87 2 87 C2.01 85.93 2.01 84.86 2.02 83.75 C2.21 59.59 2.21 59.59 1.62 35.44 C1.58 34.24 1.58 34.24 1.53 33.02 C1.36 29.84 1.05 27.15 -0.06 24.15 C-1.46 19.44 -0.95 14.99 -0.62 10.12 C-0.57 9.15 -0.51 8.18 -0.45 7.17 C-0.31 4.78 -0.16 2.39 0 0 Z " fill="#1DEAF5" transform="translate(226,62)"/>
<path d="M0 0 C2.64 0.33 5.28 0.66 8 1 C8.03 1.69 8.05 2.38 8.08 3.1 C8.19 6.21 8.31 9.32 8.44 12.44 C8.48 13.53 8.52 14.61 8.56 15.74 C8.62 17.29 8.62 17.29 8.68 18.87 C8.72 19.83 8.76 20.79 8.79 21.78 C8.76 23.97 8.76 23.97 10 25 C10.16 26.44 10.25 27.9 10.32 29.35 C10.36 30.26 10.4 31.16 10.44 32.1 C10.48 33.08 10.52 34.06 10.56 35.06 C10.6 36.05 10.65 37.04 10.69 38.06 C11.03 46.38 11.11 54.67 11 63 C11.33 63 11.66 63 12 63 C12.33 71.58 12.66 80.16 13 89 C13.33 89 13.66 89 14 89 C14.89 96.84 15 104.17 14 112 C14.66 112.33 15.32 112.66 16 113 C15.99 113.78 15.98 114.56 15.96 115.36 C15.91 122.05 16.05 128.69 16.44 135.38 C17.03 145.93 17.3 156.49 17.56 167.06 C17.58 167.9 17.61 168.75 17.63 169.61 C17.87 178.82 18.04 188.02 18.06 197.23 C18.06 197.99 18.06 198.76 18.07 199.54 C18.06 206.39 17.62 213.18 17 220 C15.02 219.34 13.04 218.68 11 218 C9.94 210.07 9.89 202.2 9.96 194.22 C9.97 191.91 9.98 189.6 9.99 187.29 C10.02 180.73 10.05 174.16 10.1 167.6 C10.25 144.69 9.42 122.24 7 99.44 C5.81 87.93 5.4 76.38 4.88 64.82 C4.38 53.96 3.79 43.15 2.68 32.33 C1.93 24.88 1.59 17.44 1.34 9.96 C1.31 9.09 1.28 8.23 1.25 7.33 C1.22 6.57 1.2 5.8 1.17 5.01 C1.06 2.79 1.06 2.79 0 0 Z M7 24 C7 25.65 7 27.3 7 29 C7.33 29 7.66 29 8 29 C8 27.35 8 25.7 8 24 C7.67 24 7.34 24 7 24 Z M8 29 C8 30.65 8 32.3 8 34 C8.33 34 8.66 34 9 34 C9 32.35 9 30.7 9 29 C8.67 29 8.34 29 8 29 Z " fill="#D92CED" transform="translate(160,30)"/>
<path d="M0 0 C0.99 0.33 1.98 0.66 3 1 C3.97 23.68 4.12 46.31 4 69 C3.34 69 2.68 69 2 69 C2.01 70.16 2.02 71.32 2.04 72.52 C2.09 80.61 1.95 88.53 1.16 96.59 C0.97 99.53 1.41 102.13 2 105 C2.09 107.67 2.05 110.32 2 113 C1.67 113 1.34 113 1 113 C1.01 113.63 1.02 114.26 1.04 114.91 C1.09 120.38 0.8 125.58 0 131 C-0.33 131 -0.66 131 -1 131 C-0.98 131.71 -0.95 132.43 -0.93 133.16 C-0.85 137.5 -0.78 141.24 -2 145.44 C-3.23 149.82 -3.06 153.71 -2.88 158.23 C-3 161 -3 161 -3.98 162.9 C-5.11 165.24 -5.29 166.86 -5.38 169.44 C-5.43 170.69 -5.43 170.69 -5.48 171.96 C-5.51 172.82 -5.54 173.68 -5.56 174.56 C-5.62 176.27 -5.69 177.98 -5.75 179.69 C-5.78 180.45 -5.8 181.2 -5.83 181.98 C-6 184 -6 184 -7 187 C-7.23 189.57 -7.42 192.12 -7.56 194.69 C-7.61 195.39 -7.65 196.09 -7.69 196.81 C-7.8 198.54 -7.9 200.27 -8 202 C-8.66 202 -9.32 202 -10 202 C-9.72 203.11 -9.72 203.11 -9.44 204.25 C-9.01 206.95 -9.15 208.45 -10 211 C-11.67 211.04 -13.33 211.04 -15 211 C-16.67 209.33 -16.21 207.37 -16.25 205.06 C-16.21 198.97 -15.3 193.25 -14.21 187.29 C-12.98 180.39 -12.29 173.5 -11.73 166.52 C-11.37 162.21 -10.85 158.03 -10.01 153.79 C-8.72 147.01 -8.34 140.2 -7.94 133.31 C-7.78 130.79 -7.62 128.26 -7.46 125.74 C-7.4 124.64 -7.33 123.53 -7.27 122.4 C-7.02 119.25 -6.64 116.15 -6.24 113.02 C-5.48 106.6 -5.32 100.09 -5 93.62 C-4.93 92.35 -4.93 92.35 -4.87 91.04 C-3.98 73.54 -3.62 56.03 -3.43 38.51 C-2.96 2.96 -2.96 2.96 0 0 Z M0 105 C1 107 1 107 1 107 Z M-11 197 C-11 198.65 -11 200.3 -11 202 C-10.67 202 -10.34 202 -10 202 C-10 200.35 -10 198.7 -10 197 C-10.33 197 -10.66 197 -11 197 Z " fill="#DB29ED" transform="translate(225,88)"/>
<path d="M0 0 C0 0.33 0 0.66 0 1 C6.27 1.33 12.54 1.66 19 2 C20.96 5.92 21.32 7.93 21.56 12.19 C21.47 15.91 21.47 15.91 23 19 C23.23 21.18 23.41 23.37 23.56 25.56 C23.65 26.76 23.73 27.96 23.82 29.19 C23.88 30.12 23.94 31.05 24 32 C24.33 32 24.66 32 25 32 C25.5 38.44 25.5 38.44 26 45 C26.33 45 26.66 45 27 45 C27.5 50.94 27.5 50.94 28 57 C28.33 57 28.66 57 29 57 C29.5 62.94 29.5 62.94 30 69 C30.33 69 30.66 69 31 69 C31.06 69.92 31.12 70.83 31.18 71.77 C31.27 72.96 31.35 74.15 31.44 75.38 C31.52 76.56 31.6 77.74 31.68 78.96 C31.81 81.92 31.81 81.92 33 84 C32.67 84.33 32.34 84.66 32 85 C32.33 85 32.66 85 33 85 C33.07 86.07 33.07 86.07 33.15 87.16 C33.58 92.71 34.24 97.71 36 103 C38.05 109.15 37.46 116.16 37.62 122.62 C37.65 123.46 37.67 124.3 37.69 125.16 C38.08 140.72 37.97 156.26 37.69 171.81 C37.66 173.45 37.66 173.45 37.64 175.13 C37.58 178.24 37.52 181.35 37.45 184.46 C37.43 185.86 37.43 185.86 37.4 187.3 C37.37 188.58 37.37 188.58 37.33 189.89 C37.32 190.64 37.3 191.39 37.29 192.16 C37 194 37 194 35 196 C32.95 193.95 33.3 189.7 33 187 C32.67 187 32.34 187 32 187 C31.98 186.11 31.98 186.11 31.97 185.2 C31.86 178.9 31.74 172.61 31.63 166.31 C31.58 163.97 31.54 161.64 31.5 159.3 C31.25 131.75 31.25 131.75 28.5 104.38 C28.24 102.61 27.98 100.85 27.72 99.09 C27.59 98.25 27.47 97.41 27.34 96.54 C26.99 93.94 26.74 91.35 26.5 88.73 C26.05 83.99 24.94 79.63 23.62 75.05 C23 71.99 23 69.2 23.06 66.08 C22.96 62.53 22.05 59.19 21.19 55.75 C19.03 46.63 17.63 37.48 16.32 28.21 C15.88 25.21 15.35 22.23 14.81 19.25 C14.04 14.76 13.82 10.55 14 6 C15.32 5.34 16.64 4.68 18 4 C-1.47 4 -20.94 4 -41 4 C-41.99 7.47 -41.99 7.47 -43 11 C-43.33 11 -43.66 11 -44 11 C-44.25 7.69 -44.25 7.69 -44 4 C-40.81 0.62 -37.75 0.53 -33.25 0.31 C-32.58 0.28 -31.91 0.25 -31.21 0.21 C-20.82 -0.23 -10.4 -0.08 0 0 Z M20 19 C21 23 21 23 21 23 Z M23 37 C24 39 24 39 24 39 Z M31 88 C31 90.31 31 92.62 31 95 C31.33 95 31.66 95 32 95 C32 92.69 32 90.38 32 88 C31.67 88 31.34 88 31 88 Z M33 98 C33 99.98 33 101.96 33 104 C33.33 104 33.66 104 34 104 C34 102.02 34 100.04 34 98 C33.67 98 33.34 98 33 98 Z M35 106 C35 107.98 35 109.96 35 112 C35.33 112 35.66 112 36 112 C36 110.02 36 108.04 36 106 C35.67 106 35.34 106 35 106 Z " fill="#DA2CED" transform="translate(241,29)"/>
<path d="M0 0 C4.07 7.89 5.47 15.1 5.69 23.94 C5.72 24.86 5.76 25.79 5.79 26.74 C5.94 31.22 6 35.68 5.93 40.16 C5.91 44.75 6.53 49.01 7.44 53.5 C9.56 64.23 10.16 74.63 10.12 85.56 C10.13 86.73 10.13 87.9 10.14 89.1 C10.13 95.49 9.85 101.67 9 108 C9.66 108 10.32 108 11 108 C15.12 120.23 15.06 132.56 14.94 145.31 C14.89 151.4 15.13 156.99 16.42 162.96 C19.01 176.58 19.23 190.47 18.93 204.29 C18.84 209.72 19.02 213.89 21 219 C21.33 221.64 21.66 224.28 22 227 C39.49 227.33 56.98 227.66 75 228 C75 228.33 75 228.66 75 229 C56.19 229 37.38 229 18 229 C16.43 224.3 15.69 221.32 15.36 216.56 C15.31 215.92 15.26 215.28 15.22 214.61 C15.11 213.18 15.01 211.74 14.91 210.31 C14.62 206.12 14.3 201.94 13.98 197.75 C13.91 196.8 13.84 195.84 13.77 194.86 C12.75 181.42 11.56 168 10.4 154.57 C9.74 146.9 9.08 139.23 8.42 131.55 C8.35 130.82 8.29 130.08 8.23 129.32 C6.48 109 4.81 88.67 3.26 68.33 C3.2 67.5 3.14 66.68 3.07 65.83 C3.01 65 2.95 64.17 2.88 63.32 C2.79 62.08 2.79 62.08 2.69 60.81 C2.56 59.16 2.44 57.51 2.31 55.87 C1.29 42.39 0.15 28.92 -1.09 15.46 C-1.15 14.78 -1.21 14.1 -1.27 13.4 C-1.44 11.59 -1.6 9.77 -1.77 7.96 C-2 5 -2 5 -2 1 C-1.34 0.67 -0.68 0.34 0 0 Z " fill="#0052A8" transform="translate(129,70)"/>
<path d="M0 0 C2.17 0.51 4 1 6 2 C6.28 8.74 6 14.94 2.96 21.12 C1.3 26.1 1.6 31.31 1.52 36.52 C1.35 42.16 0.4 45.91 -2 51 C-2.96 55.19 -3.01 58.96 -2.81 63.25 C-2.76 67.73 -3.09 70.88 -5 74.94 C-7.42 80.13 -7.21 84.66 -6.85 90.31 C-6.98 93.59 -7.38 95.27 -8.47 98.25 C-10.64 105.3 -10.55 112.44 -10.66 119.74 C-10.69 121.28 -10.73 122.81 -10.77 124.34 C-10.86 128.37 -10.94 132.4 -11.02 136.43 C-11.73 174.28 -11.73 174.28 -12.87 191.82 C-12.94 192.95 -13 194.07 -13.07 195.23 C-13.52 201.38 -14.51 206.35 -17 212 C-17.33 212 -17.66 212 -18 212 C-20.51 201.33 -18.95 189.47 -18.6 178.59 C-18.56 177.25 -18.51 175.91 -18.47 174.56 C-18.38 171.77 -18.29 168.98 -18.2 166.18 C-18.09 162.67 -17.97 159.15 -17.86 155.64 C-17.63 148.27 -17.38 140.9 -17.12 133.53 C-17.01 130.39 -16.92 127.25 -16.82 124.11 C-16.4 111.43 -14.77 99.09 -12.75 86.56 C-12.43 84.53 -12.11 82.51 -11.8 80.48 C-9.67 66.89 -7.42 53.32 -5.13 39.76 C-3.94 32.7 -2.8 25.64 -1.69 18.56 C-1.52 17.5 -1.34 16.43 -1.17 15.33 C-0.36 10.15 0.2 5.24 0 0 Z " fill="#0053A9" transform="translate(202,32)"/>
<path d="M0 0 C0.66 0 1.32 0 2 0 C2.33 3.63 2.66 7.26 3 11 C3.33 11 3.66 11 4 11 C4.23 14.19 4.43 17.37 4.62 20.56 C4.69 21.46 4.75 22.35 4.82 23.28 C5.14 28.7 4.65 32.77 3 38 C2.83 41.14 2.83 41.14 3 44.19 C3.22 49.57 3.22 49.57 2.02 51.9 C0.89 54.24 0.71 55.86 0.62 58.44 C0.59 59.27 0.55 60.1 0.52 60.96 C0.49 61.82 0.46 62.68 0.44 63.56 C0.38 65.27 0.31 66.98 0.25 68.69 C0.22 69.45 0.2 70.2 0.17 70.98 C0 73 0 73 -1 76 C-1.23 78.57 -1.42 81.12 -1.56 83.69 C-1.61 84.39 -1.65 85.09 -1.69 85.81 C-1.8 87.54 -1.9 89.27 -2 91 C-2.66 91 -3.32 91 -4 91 C-3.81 91.74 -3.63 92.49 -3.44 93.25 C-3.01 95.95 -3.15 97.45 -4 100 C-5.67 100.04 -7.33 100.04 -9 100 C-10.67 98.33 -10.21 96.37 -10.25 94.06 C-10.21 87.97 -9.3 82.25 -8.21 76.29 C-6.98 69.39 -6.29 62.5 -5.73 55.52 C-5.37 51.21 -4.85 47.03 -4.01 42.79 C-2.72 36.01 -2.34 29.2 -1.94 22.31 C-0.99 7 -0.99 7 0 0 Z M-5 86 C-5 87.65 -5 89.3 -5 91 C-4.67 91 -4.34 91 -4 91 C-4 89.35 -4 87.7 -4 86 C-4.33 86 -4.66 86 -5 86 Z " fill="#DC33EE" transform="translate(219,199)"/>
<path d="M0 0 C0.33 0 0.66 0 1 0 C3.41 9.27 5.33 18.09 5.79 27.7 C5.99 30.91 6.44 33.96 7 37.12 C7.85 42.36 8.28 47.5 8.53 52.79 C8.57 53.65 8.61 54.5 8.65 55.39 C9.18 67 9.36 78.63 9.56 90.25 C9.61 92.57 9.65 94.89 9.69 97.2 C9.8 102.8 9.9 108.4 10 114 C10.33 114 10.66 114 11 114 C11.33 116.97 11.66 119.94 12 123 C13.61 121.39 13.17 119.62 13.21 117.39 C13.23 116.41 13.25 115.43 13.27 114.42 C13.28 113.35 13.3 112.28 13.32 111.18 C13.34 110.1 13.36 109.01 13.38 107.89 C13.44 104.41 13.5 100.92 13.56 97.44 C13.61 95.08 13.65 92.73 13.69 90.37 C13.8 84.58 13.9 78.79 14 73 C14.33 73 14.66 73 15 73 C16.71 104.25 14.83 134.86 12 166 C9 164 9 164 8.32 161.91 C7.9 158.08 7.85 154.27 7.84 150.41 C7.83 149.13 7.83 149.13 7.83 147.82 C7.82 145.97 7.81 144.11 7.8 142.26 C7.79 139.31 7.77 136.35 7.75 133.4 C7.69 124.99 7.63 116.59 7.6 108.19 C7.58 103.04 7.54 97.89 7.5 92.75 C7.48 90.8 7.48 88.86 7.47 86.92 C7.45 74.89 6.6 63.32 4.68 51.44 C3.85 46.27 3.57 41.16 3.5 35.94 C3.3 29.22 2.56 23.33 0.63 16.86 C-0.59 11.32 -0.23 5.64 0 0 Z " fill="#3F2DBA" transform="translate(264,101)"/>
<path d="M0 0 C2.54 3.81 2.35 6.96 2.41 11.38 C2.43 12.21 2.45 13.05 2.47 13.92 C2.53 16.61 2.58 19.31 2.62 22 C2.66 23.75 2.7 25.51 2.74 27.26 C2.93 35.94 3.04 44.62 3.05 53.3 C3.06 54.06 3.06 54.81 3.06 55.59 C3.06 62.42 2.62 69.2 2 76 C0.02 75.34 -1.96 74.68 -4 74 C-4.85 66.86 -5.16 59.82 -5.17 52.63 C-5.17 51.58 -5.17 50.54 -5.18 49.46 C-5.18 47.28 -5.19 45.09 -5.19 42.9 C-5.19 39.55 -5.21 36.19 -5.22 32.84 C-5.23 30.71 -5.23 28.57 -5.23 26.44 C-5.24 25.44 -5.24 24.44 -5.25 23.4 C-5.25 22.47 -5.25 21.54 -5.24 20.59 C-5.25 19.36 -5.25 19.36 -5.25 18.12 C-5 16 -5 16 -3 13 C-3 13.66 -3 14.32 -3 15 C-2.01 14.67 -1.02 14.34 0 14 C0 9.38 0 4.76 0 0 Z " fill="#B628E1" transform="translate(175,174)"/>
<path d="M0 0 C0.99 0 1.98 0 3 0 C3.66 3.63 4.32 7.26 5 11 C4.34 11 3.68 11 3 11 C1.33 25.57 0.68 40 0.54 54.66 C0.3 76.83 -0.42 98.89 -2 121 C-2.08 122.23 -2.17 123.45 -2.25 124.71 C-3.14 137.54 -4.29 150.26 -6 163 C-6.32 165.69 -6.63 168.37 -6.94 171.06 C-7.72 177.86 -8.6 184.65 -9.5 191.44 C-10.8 201.28 -11.95 211.13 -13 221 C-13.33 221 -13.66 221 -14 221 C-14.09 217.38 -14.14 213.75 -14.19 210.12 C-14.21 209.11 -14.24 208.1 -14.26 207.05 C-14.32 201.07 -13.64 196.33 -11.73 190.69 C-10.24 185.2 -10.22 179.47 -9.94 173.81 C-9.55 166.56 -9.17 159.97 -7 153 C-6.72 150.29 -6.54 147.66 -6.44 144.94 C-6.4 144.12 -6.36 143.3 -6.33 142.46 C-6.07 136.19 -5.93 129.93 -5.79 123.66 C-5.75 121.97 -5.71 120.29 -5.67 118.6 C-5.6 115.25 -5.54 111.9 -5.48 108.55 C-5.33 100.88 -4.98 93.51 -3.51 85.95 C-1.9 76.69 -1.83 67.25 -1.74 57.88 C-1.72 55.77 -1.69 53.65 -1.66 51.54 C-1.59 46.31 -1.53 41.08 -1.47 35.84 C-1.42 31.39 -1.37 26.94 -1.31 22.49 C-1.28 20.42 -1.26 18.35 -1.24 16.28 C-1.22 15.02 -1.21 13.76 -1.19 12.46 C-1.18 11.35 -1.16 10.25 -1.15 9.11 C-1 6 -0.57 3.05 0 0 Z " fill="#402CBA" transform="translate(222,78)"/>
<path d="M0 0 C0 0.33 0 0.66 0 1 C6.27 1.33 12.54 1.66 19 2 C20.96 5.92 21.32 7.93 21.56 12.19 C21.47 15.91 21.47 15.91 23 19 C23.23 21.18 23.41 23.37 23.56 25.56 C23.65 26.76 23.73 27.96 23.82 29.19 C23.88 30.12 23.94 31.05 24 32 C24.33 32 24.66 32 25 32 C25 39.92 25 47.84 25 56 C24.01 55.01 23.02 54.02 22 53 C21.34 52.67 20.68 52.34 20 52 C19.6 49.79 19.3 47.55 19.06 45.31 C18.47 40.15 17.65 35.19 16.44 30.12 C14.62 22.13 14.29 14.16 14 6 C15.32 5.34 16.64 4.68 18 4 C-1.47 4 -20.94 4 -41 4 C-41.99 7.47 -41.99 7.47 -43 11 C-43.33 11 -43.66 11 -44 11 C-44.25 7.69 -44.25 7.69 -44 4 C-40.81 0.62 -37.75 0.53 -33.25 0.31 C-32.58 0.28 -31.91 0.25 -31.21 0.21 C-20.82 -0.23 -10.4 -0.08 0 0 Z M20 19 C21 23 21 23 21 23 Z M23 37 C24 39 24 39 24 39 Z " fill="#BF36E4" transform="translate(241,29)"/>
<path d="M0 0 C3.16 3.16 3.13 4.3 3.14 8.89 C3.13 9.67 3.13 10.45 3.12 11.25 C3.13 12.01 3.13 12.78 3.14 13.57 C3.13 17.54 2.83 21.1 2 25 C1.96 26.98 1.96 28.96 2 30.94 C2.04 35.09 1.9 38.93 1 43 C0.67 43 0.34 43 0 43 C0.01 43.62 0.02 44.24 0.04 44.88 C0.12 52.96 -0.39 60.94 -1 69 C-4 70 -4 70 -7 69 C-8.04 65.88 -8.1 63.7 -8.06 60.44 C-8.05 59.47 -8.04 58.5 -8.04 57.5 C-8.02 56.67 -8.01 55.85 -8 55 C-8 54.34 -8 53.68 -8 53 C-7.78 51.06 -7.57 49.12 -7.34 47.19 C-5.62 32.43 -4.84 17.85 -5 3 C-4.01 2.67 -3.02 2.34 -2 2 C-1.67 3.32 -1.34 4.64 -1 6 C-0.67 4.02 -0.34 2.04 0 0 Z M1 13 C2 17 2 17 2 17 Z " fill="#CF39E7" transform="translate(320,231)"/>
<path d="M0 0 C0.33 0 0.66 0 1 0 C1 2.31 1 4.62 1 7 C1.66 7 2.32 7 3 7 C3.05 7.99 3.1 8.98 3.15 10 C3.22 11.33 3.3 12.67 3.38 14 C3.44 15.3 3.51 16.6 3.59 17.94 C3.8 20.73 4.25 22.93 5 25.69 C6.53 31.36 6.43 37.16 6.56 43 C6.75 50.07 7.02 56.99 8 64 C8.38 69.48 7.84 74.33 6.51 79.65 C5.63 83.72 5.33 87.85 5 92 C4.67 92 4.34 92 4 92 C4 88.04 4 84.08 4 80 C3.34 80 2.68 80 2 80 C1.6 72.27 1.21 64.54 0.83 56.81 C0.65 53.22 0.47 49.63 0.28 46.04 C0.1 42.57 -0.07 39.09 -0.24 35.62 C-0.34 33.67 -0.44 31.72 -0.54 29.77 C-1.59 8.47 -1.59 8.47 0 0 Z " fill="#0052A9" transform="translate(235,97)"/>
<path d="M0 0 C2.33 -0.04 4.67 -0.04 7 0 C7.33 0.33 7.66 0.66 8 1 C7.93 2.63 7.79 4.25 7.62 5.88 C7.25 9.83 6.95 13.77 6.78 17.74 C6.74 18.57 6.7 19.4 6.67 20.25 C6.6 21.88 6.54 23.51 6.48 25.15 C6.29 29.59 5.65 33.48 4.47 37.79 C3.48 42.45 3.52 47.25 3.38 52 C3.32 53.59 3.32 53.59 3.26 55.21 C3.16 57.81 3.08 60.4 3 63 C1.51 63.5 1.51 63.5 0 64 C-0.33 59.71 -0.66 55.42 -1 51 C-1.66 52.32 -2.32 53.64 -3 55 C-3.23 42.75 -2.51 30.7 -1.5 18.5 C-1.35 16.69 -1.21 14.89 -1.07 13.08 C-0.72 8.72 -0.36 4.36 0 0 Z M4 2 C4.99 3.48 4.99 3.48 6 5 C6 4.01 6 3.02 6 2 C5.34 2 4.68 2 4 2 Z M5 7 C5 8.65 5 10.3 5 12 C5.33 12 5.66 12 6 12 C6 10.35 6 8.7 6 7 C5.67 7 5.34 7 5 7 Z M1 50 C1 52.97 1 55.94 1 59 C1.33 59 1.66 59 2 59 C2 56.03 2 53.06 2 50 C1.67 50 1.34 50 1 50 Z " fill="#D42AEB" transform="translate(333,30)"/>
<path d="M0 0 C4.11 3.05 4.71 5.99 5.42 10.8 C5.53 11.69 5.64 12.58 5.75 13.5 C5.88 14.43 6 15.36 6.13 16.32 C7.01 23.42 7.06 30.32 6.87 37.45 C6.78 44.78 7.98 51.63 9.58 58.76 C12.51 71.99 12.51 71.99 10 77 C9.01 77 8.02 77 7 77 C5.83 68.63 4.67 60.26 3.53 51.89 C3.2 49.47 2.87 47.05 2.53 44.63 C1.02 33.64 -0.22 22.71 -0.75 11.62 C-0.79 10.68 -0.84 9.74 -0.89 8.78 C-1.13 2.26 -1.13 2.26 0 0 Z " fill="#0053A9" transform="translate(239,197)"/>
<path d="M0 0 C0.33 0 0.66 0 1 0 C1.89 7.84 2 15.17 1 23 C1.66 23.33 2.32 23.66 3 24 C3 38.85 3 53.7 3 69 C1.02 69.5 1.02 69.5 -1 70 C-3.47 65.25 -3.2 60.89 -3.06 55.69 C-2.95 50.45 -3.03 45.52 -3.77 40.32 C-4.31 34.91 -4.1 29.43 -4.06 24 C-4.06 22.75 -4.05 21.5 -4.05 20.21 C-4.04 17.14 -4.02 14.07 -4 11 C-3.34 11.66 -2.68 12.32 -2 13 C-1.34 8.71 -0.68 4.42 0 0 Z " fill="#DA24ED" transform="translate(173,119)"/>
<path d="M0 0 C2.97 0.49 2.97 0.49 6 1 C6.82 3.86 7.14 6.4 7.12 9.38 C7.13 10.1 7.13 10.83 7.13 11.59 C7 14 7 14 6.5 16.8 C6.03 19.8 5.86 22.61 5.83 25.65 C5.81 26.73 5.8 27.82 5.79 28.94 C5.78 30.1 5.76 31.25 5.75 32.45 C5.72 34.93 5.69 37.41 5.65 39.9 C5.61 43.79 5.56 47.68 5.52 51.57 C5.48 55.35 5.43 59.12 5.38 62.89 C5.37 64.04 5.36 65.19 5.35 66.37 C5.25 73.44 4.51 80.09 3 87 C2.67 87 2.34 87 2 87 C2.01 85.93 2.01 84.86 2.02 83.75 C2.21 59.59 2.21 59.59 1.62 35.44 C1.58 34.24 1.58 34.24 1.53 33.02 C1.36 29.84 1.05 27.15 -0.06 24.15 C-1.46 19.44 -0.95 14.99 -0.62 10.12 C-0.57 9.15 -0.51 8.18 -0.45 7.17 C-0.31 4.78 -0.16 2.39 0 0 Z " fill="#3BC8E8" transform="translate(226,62)"/>
<path d="M0 0 C0.66 0 1.32 0 2 0 C3.57 6.06 4.32 11.68 4.25 17.94 C4.24 18.77 4.24 19.61 4.23 20.47 C4.13 27.96 3.67 35.41 3.12 42.88 C3.05 43.99 2.97 45.1 2.89 46.24 C2.47 51.5 1.8 56.01 0 61 C-0.17 63.68 -0.17 63.68 0 66.25 C0.12 68.83 0.12 68.83 0 71 C-0.99 71.99 -0.99 71.99 -2 73 C-2.66 72.67 -3.32 72.34 -4 72 C-3.49 57.37 -2.81 42.75 -2 28.12 C-1.96 27.36 -1.92 26.59 -1.87 25.79 C-1.4 17.18 -0.87 8.58 0 0 Z " fill="#0052A9" transform="translate(289,144)"/>
<path d="M0 0 C0.33 0 0.66 0 1 0 C1.33 3.96 1.66 7.92 2 12 C2.33 12 2.66 12 3 12 C3.33 15.96 3.66 19.92 4 24 C4.33 24 4.66 24 5 24 C5.06 24.92 5.12 25.83 5.18 26.77 C5.27 27.96 5.35 29.15 5.44 30.38 C5.52 31.56 5.6 32.74 5.68 33.96 C5.81 36.92 5.81 36.92 7 39 C6.34 39 5.68 39 5 39 C5.17 39.52 5.33 40.03 5.5 40.56 C6 43 6 43 5.94 46.12 C6.01 50.92 6.95 55.34 8 60 C7.34 60 6.68 60 6 60 C6 63.3 6 66.6 6 70 C5.67 70 5.34 70 5 70 C4.5 67.03 4.5 67.03 4 64 C3.67 64 3.34 64 3 64 C2.89 62.86 2.78 61.73 2.67 60.55 C1.69 50.84 0.23 41.51 -2 32 C-2.82 28.32 -2.97 25.1 -2.89 21.33 C-3.06 17.58 -3.93 13.98 -4.76 10.32 C-4.84 9.55 -4.92 8.79 -5 8 C-4.34 7.34 -3.68 6.68 -3 6 C-2.67 6.66 -2.34 7.32 -2 8 C-0.03 6.03 -0.34 2.65 0 0 Z " fill="#DA33EC" transform="translate(267,74)"/>
<path d="M0 0 C0 3.96 0 7.92 0 12 C0.99 12.33 1.98 12.66 3 13 C2.86 15.9 2.71 18.79 2.56 21.69 C2.5 22.91 2.5 22.91 2.44 24.16 C2.23 28.21 1.86 32.03 1 36 C0.79 38.1 0.6 40.21 0.44 42.31 C0.35 43.38 0.27 44.45 0.18 45.55 C0.12 46.36 0.06 47.17 0 48 C-1.49 48.5 -1.49 48.5 -3 49 C-3 48.01 -3 47.02 -3 46 C-3.66 47.98 -4.32 49.96 -5 52 C-6.54 50.4 -6.54 50.4 -8 48 C-7.93 45.16 -7.93 45.16 -7.31 41.62 C-6.4 35.88 -5.84 30.16 -5.52 24.34 C-5.48 23.67 -5.44 23 -5.4 22.31 C-5.24 19.56 -5.09 16.81 -4.97 14.06 C-4.88 12.11 -4.77 10.15 -4.66 8.2 C-4.6 7.05 -4.55 5.91 -4.49 4.73 C-4.33 3.83 -4.17 2.93 -4 2 C-1 0 -1 0 0 0 Z " fill="#D92FEB" transform="translate(324,186)"/>
<path d="M0 0 C0.33 0 0.66 0 1 0 C1.04 1.31 1.07 2.63 1.11 3.98 C1.56 17.46 2.52 30.85 3.71 44.28 C4.65 55.01 5.32 65.7 5.66 76.47 C5.87 82.78 6.3 89.03 6.94 95.31 C9.03 115.88 10.39 136.32 10 157 C9.34 156.67 8.68 156.34 8 156 C7.98 155.33 7.96 154.66 7.94 153.97 C7.84 150.88 7.73 147.78 7.62 144.69 C7.59 143.63 7.56 142.58 7.53 141.5 C7.49 140.45 7.45 139.4 7.41 138.32 C7.38 137.38 7.35 136.43 7.32 135.45 C7.05 132.52 6.59 129.81 6.01 126.93 C4.81 120.56 4.59 114.28 4.44 107.81 C4.4 106.58 4.36 105.36 4.33 104.09 C4.17 98.9 4.03 93.7 3.9 88.5 C3.79 84.69 3.68 80.87 3.56 77.06 C3.52 75.32 3.52 75.32 3.48 73.54 C3.28 66.8 2.46 60.57 1 54 C-0.62 42.87 -0.11 31.47 -0.06 20.25 C-0.06 18.28 -0.05 16.31 -0.05 14.34 C-0.04 9.56 -0.02 4.78 0 0 Z " fill="#3F2CBA" transform="translate(161,33)"/>
<path d="M0 0 C0.33 0 0.66 0 1 0 C1 1.98 1 3.96 1 6 C0.67 6 0.34 6 0 6 C0 4.02 0 2.04 0 0 Z M-1 6 C-0.67 6 -0.34 6 0 6 C0.33 7.65 0.66 9.3 1 11 C1.66 10.67 2.32 10.34 3 10 C3.03 10.64 3.05 11.29 3.08 11.95 C3.19 14.93 3.32 17.9 3.44 20.88 C3.48 21.89 3.52 22.9 3.56 23.95 C3.76 28.78 4.04 33.52 4.66 38.32 C5.13 42.69 4.29 45.77 3 50 C2.61 53.97 2.49 57.95 2.38 61.94 C2.32 63.54 2.32 63.54 2.26 65.17 C2.16 67.78 2.08 70.39 2 73 C1.67 73 1.34 73 1 73 C0.94 72.17 0.88 71.34 0.82 70.48 C0.69 68.85 0.69 68.85 0.56 67.19 C0.48 66.11 0.4 65.03 0.32 63.92 C0.1 60.94 0.1 60.94 -1 58 C-1.66 58 -2.32 58 -3 58 C-4.12 52.03 -3.89 46.51 -3.44 40.47 C-3.34 38.99 -3.34 38.99 -3.24 37.48 C-3.02 34.34 -2.79 31.2 -2.56 28.06 C-2.41 25.93 -2.26 23.79 -2.12 21.65 C-1.75 16.44 -1.38 11.22 -1 6 Z M2 33 C2 34.98 2 36.96 2 39 C2.33 39 2.66 39 3 39 C3 37.02 3 35.04 3 33 C2.67 33 2.34 33 2 33 Z M2 44 C2 45.65 2 47.3 2 49 C2.33 49 2.66 49 3 49 C3 47.35 3 45.7 3 44 C2.67 44 2.34 44 2 44 Z " fill="#DB30ED" transform="translate(330,70)"/>
<path d="M0 0 C0.99 0.33 1.98 0.66 3 1 C3.97 23.68 4.12 46.31 4 69 C3.34 69 2.68 69 2 69 C1.67 62.07 1.34 55.14 1 48 C0.01 47.67 -0.98 47.34 -2 47 C-3.93 43.14 -3.19 38.37 -3.19 34.12 C-3.19 33.06 -3.19 31.99 -3.19 30.89 C-2.99 2.99 -2.99 2.99 0 0 Z " fill="#AE2CE0" transform="translate(225,88)"/>
<path d="M0 0 C0.99 0.5 0.99 0.5 2 1 C2.15 17.86 2.3 34.73 2.44 51.59 C2.51 59.42 2.58 67.25 2.65 75.08 C2.71 81.91 2.77 88.73 2.83 95.56 C2.85 99.17 2.89 102.78 2.92 106.4 C2.96 110.43 2.99 114.46 3.02 118.5 C3.03 119.7 3.05 120.89 3.06 122.13 C3.07 123.23 3.08 124.33 3.08 125.46 C3.09 126.42 3.1 127.37 3.11 128.35 C3 131 2.59 133.42 2 136 C0 134 0 134 -0.25 131.66 C-0.24 130.67 -0.24 129.69 -0.24 128.67 C-0.24 127.54 -0.25 126.41 -0.25 125.25 C-0.24 124 -0.23 122.76 -0.23 121.47 C-0.23 120.16 -0.23 118.86 -0.23 117.51 C-0.23 113.92 -0.22 110.33 -0.2 106.74 C-0.19 102.99 -0.19 99.24 -0.19 95.49 C-0.18 88.38 -0.16 81.28 -0.14 74.17 C-0.12 66.09 -0.11 58 -0.1 49.91 C-0.08 33.28 -0.04 16.64 0 0 Z " fill="#807D82" transform="translate(381,112)"/>
<path d="M0 0 C0.66 0 1.32 0 2 0 C2.33 3.63 2.66 7.26 3 11 C3.33 11 3.66 11 4 11 C4.23 14.19 4.43 17.37 4.62 20.56 C4.69 21.46 4.75 22.35 4.82 23.28 C5.14 28.7 4.65 32.77 3 38 C2.83 41.14 2.83 41.14 3 44.19 C3.16 48.2 2.95 50.5 1 54 C0.83 56.67 0.83 56.67 1 59 C0.34 59 -0.32 59 -1 59 C-1.33 56.69 -1.66 54.38 -2 52 C-2.99 52.5 -2.99 52.5 -4 53 C-4.93 49.34 -4.96 46.78 -4.13 43.11 C-2.75 36.21 -2.35 29.32 -1.94 22.31 C-0.99 7 -0.99 7 0 0 Z " fill="#D227E9" transform="translate(219,199)"/>
<path d="M0 0 C0.66 0 1.32 0 2 0 C3.65 3.31 3.18 6.99 3.2 10.63 C3.21 11.49 3.21 12.36 3.22 13.25 C3.23 15.08 3.24 16.91 3.24 18.75 C3.25 21.53 3.28 24.31 3.31 27.09 C3.32 28.87 3.32 30.66 3.33 32.44 C3.34 33.26 3.35 34.09 3.37 34.93 C3.34 40.62 2.51 45.83 0 51 C-0.99 51.5 -0.99 51.5 -2 52 C-2.66 51.67 -3.32 51.34 -4 51 C-3.55 38.36 -2.91 25.74 -2 13.12 C-1.92 11.94 -1.83 10.75 -1.75 9.52 C-1.63 7.88 -1.63 7.88 -1.5 6.2 C-1.43 5.22 -1.36 4.24 -1.28 3.23 C-1 1 -1 1 0 0 Z " fill="#0052A9" transform="translate(294,74)"/>
<path d="M0 0 C5.94 0 11.88 0 18 0 C18 0.66 18 1.32 18 2 C17.03 2.29 16.06 2.58 15.06 2.88 C11.89 3.64 11.89 3.64 11 6 C10.82 7.86 10.7 9.73 10.61 11.6 C10.54 12.73 10.47 13.86 10.4 15.03 C10.26 17.4 10.13 19.78 10.01 22.15 C9.57 29.11 8.64 34.02 5 40 C3.1 36.8 2.8 34.62 2.99 30.93 C3.04 29.95 3.08 28.97 3.13 27.96 C3.19 26.94 3.25 25.92 3.31 24.88 C3.36 23.88 3.41 22.88 3.46 21.86 C3.78 15.55 4.31 9.28 5 3 C2.52 2.01 2.52 2.01 0 1 C0 0.67 0 0.34 0 0 Z " fill="#0254A6" transform="translate(291,29)"/>
<path d="M0 0 C6.93 0.33 13.86 0.66 21 1 C20.67 1.66 20.34 2.32 20 3 C16.37 3 12.74 3 9 3 C9.01 3.95 9.02 4.9 9.03 5.87 C9.07 9.4 9.09 12.93 9.11 16.45 C9.12 17.98 9.13 19.5 9.15 21.03 C9.18 23.22 9.19 25.41 9.2 27.61 C9.21 28.93 9.22 30.25 9.23 31.61 C9.02 34.73 8.67 36.41 7 39 C6.34 39 5.68 39 5 39 C4.57 35 4.14 31 3.72 26.99 C3.57 25.64 3.43 24.28 3.28 22.92 C3.07 20.95 2.86 18.99 2.66 17.03 C2.53 15.85 2.4 14.67 2.28 13.46 C2 10 2 10 2.08 6.25 C2.28 2.85 2.28 2.85 0 0 Z " fill="#0356AA" transform="translate(122,29)"/>
<path d="M0 0 C0.33 0 0.66 0 1 0 C1.06 0.84 1.11 1.68 1.17 2.54 C1.37 5.64 1.59 8.75 1.8 11.85 C1.89 13.2 1.98 14.54 2.07 15.89 C2.2 17.82 2.33 19.75 2.46 21.68 C2.54 22.84 2.62 24 2.7 25.2 C2.83 27.95 2.83 27.95 4 30 C4.99 30 5.98 30 7 30 C7 39.24 7 48.48 7 58 C5.02 57.34 3.04 56.68 1 56 C0.16 48.96 -0.14 42.05 -0.1 34.96 C-0.1 33.95 -0.09 32.95 -0.09 31.91 C-0.09 28.73 -0.08 25.55 -0.06 22.38 C-0.06 20.2 -0.05 18.03 -0.05 15.86 C-0.04 10.58 -0.02 5.29 0 0 Z " fill="#862CD1" transform="translate(170,192)"/>
<path d="M0 0 C0.33 0 0.66 0 1 0 C1.06 0.94 1.12 1.88 1.18 2.85 C1.27 4.1 1.35 5.34 1.44 6.62 C1.56 8.47 1.56 8.47 1.68 10.35 C1.92 13.83 1.92 13.83 2.51 16.53 C3.2 21.42 3.16 26.26 3.17 31.2 C3.17 32.27 3.17 33.34 3.18 34.45 C3.18 36.71 3.19 38.96 3.19 41.22 C3.19 44.69 3.21 48.15 3.22 51.61 C3.23 53.81 3.23 56 3.23 58.2 C3.24 59.24 3.24 60.27 3.25 61.34 C3.25 62.3 3.25 63.27 3.24 64.26 C3.24 65.1 3.25 65.95 3.25 66.82 C3 69 3 69 1 72 C0.55 74.28 0.55 74.28 0.38 76.69 C0.3 77.5 0.23 78.3 0.15 79.14 C0.1 79.75 0.05 80.37 0 81 C-0.33 81 -0.66 81 -1 81 C-1.91 71.65 -1.89 62.79 -1.06 53.44 C0.34 35.63 0.19 17.85 0 0 Z " fill="#3CC9E9" transform="translate(279,174)"/>
<path d="M0 0 C2.64 0.33 5.28 0.66 8 1 C8 13.87 8 26.74 8 40 C7.34 40 6.68 40 6 40 C-0.04 32.75 1.71 19.55 1.39 10.6 C1.36 9.66 1.32 8.72 1.28 7.75 C1.25 6.91 1.22 6.07 1.19 5.2 C1.07 2.82 1.07 2.82 0 0 Z " fill="#CC2BE8" transform="translate(160,30)"/>
<path d="M0 0 C0.66 0.33 1.32 0.66 2 1 C1.55 6.92 1.09 12.83 0.62 18.75 C0.56 19.63 0.49 20.51 0.42 21.41 C-0.31 30.74 -1.04 40.07 -2.06 49.38 C-2.7 55.19 -3.15 61.01 -3.5 66.85 C-3.54 67.55 -3.58 68.25 -3.62 68.98 C-3.83 72.49 -4.03 75.99 -4.22 79.5 C-5.52 102.52 -5.52 102.52 -9 106 C-9.12 99.12 -8.79 92.4 -8.06 85.56 C-7.98 84.68 -7.89 83.8 -7.8 82.88 C-7.44 79.4 -7.11 76.34 -6 73 C-5.8 70.27 -5.65 67.55 -5.54 64.82 C-5.46 63.15 -5.38 61.48 -5.3 59.81 C-5.18 57.2 -5.06 54.59 -4.95 51.98 C-4.56 43.13 -4.12 34.48 -2.48 25.76 C-1.62 20.79 -1.27 15.77 -0.88 10.75 C-0.75 9.19 -0.75 9.19 -0.61 7.59 C-0.4 5.06 -0.2 2.53 0 0 Z " fill="#422CBB" transform="translate(332,30)"/>
<path d="M0 0 C0.5 0.99 0.5 0.99 1 2 C-23.42 2 -47.84 2 -73 2 C-72.67 12.89 -72.34 23.78 -72 35 C-51.54 35.33 -31.08 35.66 -10 36 C-10 36.33 -10 36.66 -10 37 C-18.2 37.15 -26.39 37.3 -34.59 37.44 C-38.4 37.51 -42.2 37.58 -46.01 37.65 C-49.68 37.72 -53.35 37.78 -57.02 37.84 C-58.42 37.87 -59.82 37.89 -61.23 37.92 C-63.19 37.96 -65.14 37.99 -67.1 38.02 C-68.22 38.04 -69.34 38.06 -70.49 38.08 C-73 38 -73 38 -74 37 C-74 25.12 -74 13.24 -74 1 C-49.58 0.67 -25.16 0.34 0 0 Z " fill="#BCB9BE" transform="translate(480,132)"/>
<path d="M0 0 C0.33 0 0.66 0 1 0 C2.28 27.57 1.49 54.52 -1 82 C-1.33 82 -1.66 82 -2 82 C-2.06 81.41 -2.11 80.81 -2.17 80.2 C-2.42 77.47 -2.68 74.73 -2.94 72 C-3.02 71.07 -3.11 70.13 -3.2 69.17 C-3.59 65 -4.01 60.84 -4.56 56.69 C-4.95 53.41 -5.1 50.3 -5.06 47 C-5.05 46.05 -5.04 45.1 -5.04 44.12 C-5.02 43.42 -5.01 42.72 -5 42 C-4.01 41.5 -4.01 41.5 -3 41 C-2.67 43.97 -2.34 46.94 -2 50 C-0.39 48.39 -0.83 46.62 -0.79 44.39 C-0.77 43.41 -0.75 42.43 -0.73 41.42 C-0.71 39.82 -0.71 39.82 -0.68 38.18 C-0.66 37.1 -0.64 36.01 -0.62 34.89 C-0.56 31.41 -0.5 27.92 -0.44 24.44 C-0.39 22.08 -0.35 19.73 -0.31 17.37 C-0.2 11.58 -0.1 5.79 0 0 Z " fill="#862CD1" transform="translate(278,174)"/>
<path d="M0 0 C0.66 0 1.32 0 2 0 C2.78 8.28 3.11 16.5 3.12 24.81 C3.13 25.68 3.13 26.55 3.14 27.45 C3.13 31.63 3.01 35.78 2.68 39.95 C2.62 40.66 2.57 41.37 2.51 42.1 C1.88 44.45 0.83 45.44 -1 47 C-3.48 36.23 -1.82 24.59 -1 13.69 C-0.9 12.35 -0.81 11.01 -0.71 9.67 C-0.48 6.45 -0.24 3.22 0 0 Z " fill="#0052A9" transform="translate(285,221)"/>
<path d="M0 0 C0 0.33 0 0.66 0 1 C6.27 1.33 12.54 1.66 19 2 C21.11 6.22 21.18 8.4 21 13 C19 10 19 10 18 4 C-1.47 4 -20.94 4 -41 4 C-41.99 7.47 -41.99 7.47 -43 11 C-43.33 11 -43.66 11 -44 11 C-44.25 7.69 -44.25 7.69 -44 4 C-40.81 0.62 -37.75 0.53 -33.25 0.31 C-32.58 0.28 -31.91 0.25 -31.21 0.21 C-20.82 -0.23 -10.4 -0.08 0 0 Z " fill="#BCCAE8" transform="translate(241,29)"/>
<path d="M0 0 C0.33 0 0.66 0 1 0 C1 44.55 1 89.1 1 135 C0.67 135 0.34 135 0 135 C0 90.45 0 45.9 0 0 Z " fill="#F6F7F9" transform="translate(933,114)"/>
<path d="M0 0 C0.99 0.33 1.98 0.66 3 1 C3.33 10.9 3.66 20.8 4 31 C3.01 30.34 2.02 29.68 1 29 C0.81 25.88 0.81 25.88 1 23 C0.01 23.33 -0.98 23.66 -2 24 C-3.02 20.95 -3.01 19.5 -2.7 16.37 C-2.61 15.48 -2.52 14.59 -2.43 13.68 C-2.33 12.75 -2.23 11.83 -2.12 10.88 C-2.03 9.94 -1.94 9.01 -1.85 8.05 C-1.13 1.13 -1.13 1.13 0 0 Z " fill="#832CD0" transform="translate(225,88)"/>
<path d="M0 0 C2.57 3.01 3.52 5.36 4.19 9.25 C4.35 10.14 4.5 11.03 4.67 11.95 C4.83 12.97 4.83 12.97 5 14 C4.67 12.35 4.34 10.7 4 9 C4.66 9 5.32 9 6 9 C6.33 8.34 6.66 7.68 7 7 C7 14.92 7 22.84 7 31 C6.01 30.01 5.02 29.02 4 28 C3.34 27.67 2.68 27.34 2 27 C1.4 24.01 1.4 24.01 0.94 20.12 C0.86 19.45 0.77 18.78 0.69 18.09 C0.45 16.06 0.22 14.03 0 12 C-0.13 10.88 -0.25 9.75 -0.38 8.59 C-0.95 3.11 -0.95 3.11 -1 1 C-0.67 0.67 -0.34 0.34 0 0 Z " fill="#DC2FED" transform="translate(259,54)"/>
<path d="M0 0 C0.33 0.99 0.66 1.98 1 3 C2.32 3 3.64 3 5 3 C5.06 7.46 5.09 11.92 5.12 16.38 C5.14 17.65 5.16 18.92 5.18 20.23 C5.18 21.44 5.19 22.65 5.2 23.9 C5.21 25.02 5.22 26.14 5.23 27.29 C5 30 5 30 3 32 C0.95 29.95 1.3 25.7 1 23 C0.67 23 0.34 23 0 23 C0 15.41 0 7.82 0 0 Z " fill="#B828E1" transform="translate(273,193)"/>
<path d="M0 0 C0.33 0 0.66 0 1 0 C1.13 9.05 0.77 17.98 0.06 27 C-0.02 28.19 -0.11 29.37 -0.2 30.6 C-0.87 39.36 -0.87 39.36 -1.56 42.73 C-2.04 45.18 -1.78 46.65 -1 49 C-1.33 49 -1.66 49 -2 49 C-2 52.96 -2 56.92 -2 61 C-2.99 60.67 -3.98 60.34 -5 60 C-4.91 56.02 -4.8 52.03 -4.68 48.05 C-4.63 46.04 -4.58 44.02 -4.53 42.01 C-4.2 31.03 -4.2 31.03 -3 26.78 C-1.66 21.7 -1.58 16.79 -1.44 11.56 C-1.38 9.58 -1.31 7.61 -1.25 5.63 C-1.22 4.76 -1.2 3.9 -1.17 3.01 C-1 1 -1 1 0 0 Z " fill="#432CB9" transform="translate(315,238)"/>
<path d="M0 0 C2.43 9.36 2.43 16.64 0 26 C-0.99 25.67 -1.98 25.34 -3 25 C-3.33 17.41 -3.66 9.82 -4 2 C-5.32 1.34 -6.64 0.68 -8 0 C-4.71 -1.1 -3.29 -0.8 0 0 Z " fill="#0052A9" transform="translate(236,61)"/>
<path d="M0 0 C0.33 0 0.66 0 1 0 C3.47 20.65 3.2 41.24 3 62 C2.67 62 2.34 62 2 62 C2 56.06 2 50.12 2 44 C1.34 44 0.68 44 0 44 C0 29.48 0 14.96 0 0 Z " fill="#65D0F0" transform="translate(177,173)"/>
<path d="M0 0 C0.33 0 0.66 0 1 0 C2.38 25.77 2.38 25.77 1.14 37.52 C0.77 41.6 0.77 41.6 2.48 45.23 C2.98 45.81 3.48 46.4 4 47 C4 48.32 4 49.64 4 51 C2.35 50.67 0.7 50.34 -1 50 C-3.13 42.74 -3.13 42.74 -2.55 39.38 C-1.91 35.44 -1.67 31.52 -1.46 27.54 C-1.42 26.75 -1.38 25.96 -1.33 25.14 C-1.2 22.64 -1.07 20.13 -0.94 17.62 C-0.85 15.92 -0.75 14.21 -0.66 12.5 C-0.44 8.34 -0.22 4.17 0 0 Z " fill="#1FDDF1" transform="translate(178,217)"/>
<path d="M0 0 C0.33 0 0.66 0 1 0 C1.43 1.39 1.43 1.39 1.88 2.81 C2.89 6.1 2.89 6.1 5 9 C5.16 11.59 5.16 11.59 5.06 14.5 C4.96 17.78 4.95 19.86 6 23 C6.99 23.33 7.98 23.66 9 24 C9 24.66 9 25.32 9 26 C6.03 26 3.06 26 0 26 C0.66 25.67 1.32 25.34 2 25 C1.69 23.8 1.38 22.61 1.06 21.38 C-0.67 14.36 -2.35 7.04 0 0 Z " fill="#004C9B" transform="translate(248,275)"/>
<path d="M0 0 C0.33 0 0.66 0 1 0 C1.99 5.6 2.9 11.2 3.66 16.84 C4.95 26.4 6.41 35.79 8.82 45.14 C9.87 49.44 10.05 52.69 9 57 C8.67 57 8.34 57 8 57 C7.88 56.43 7.76 55.86 7.63 55.28 C7.47 54.51 7.3 53.73 7.12 52.94 C6.96 52.18 6.8 51.43 6.63 50.65 C6.15 48.65 5.58 46.67 4.96 44.7 C3.74 40 3.59 35.53 3.43 30.7 C3.27 26.9 2.81 24.31 1 21 C-0.04 16.37 -0.12 11.84 -0.06 7.12 C-0.06 6.44 -0.05 5.75 -0.05 5.04 C-0.04 3.36 -0.02 1.68 0 0 Z " fill="#3F2CBA" transform="translate(255,43)"/>
<path d="M0 0 C0.33 0 0.66 0 1 0 C1.17 7.46 1.33 14.91 1.48 22.37 C1.54 24.91 1.59 27.44 1.65 29.98 C1.73 33.63 1.81 37.27 1.88 40.92 C1.92 42.62 1.92 42.62 1.96 44.35 C1.98 45.41 2 46.47 2.02 47.57 C2.04 48.5 2.06 49.43 2.08 50.39 C2 53.03 1.59 55.43 1 58 C-1.7 55.3 -1.24 53.21 -1.25 49.55 C-1.25 48.66 -1.24 47.77 -1.23 46.86 C-1.23 45.93 -1.23 45.01 -1.23 44.07 C-1.23 42.11 -1.22 40.15 -1.21 38.19 C-1.19 35.24 -1.19 32.28 -1.19 29.33 C-1.17 19.51 -1.01 9.78 0 0 Z " fill="#8E8A90" transform="translate(382,190)"/>
<path d="M0 0 C0.66 0 1.32 0 2 0 C2 1.98 2 3.96 2 6 C2.66 6 3.32 6 4 6 C4.33 6.99 4.66 7.98 5 9 C4.67 9.33 4.34 9.66 4 10 C4.18 12.5 4.52 14.97 4.84 17.46 C5 19.92 4.74 21.66 4 24 C2.33 24.04 0.67 24.04 -1 24 C-2.73 22.27 -2.17 19.98 -2.19 17.62 C-2.15 11.57 -1.3 5.9 0 0 Z " fill="#D228E8" transform="translate(211,275)"/>
<path d="M0 0 C0.33 0 0.66 0 1 0 C1.31 4.91 1.62 9.81 1.91 14.72 C2.01 16.39 2.11 18.05 2.22 19.71 C2.83 29.25 3.22 38.48 2 48 C2.66 48 3.32 48 4 48 C4 50.97 4 53.94 4 57 C3.01 56.67 2.02 56.34 1 56 C0.16 48.96 -0.14 42.05 -0.1 34.96 C-0.1 33.95 -0.09 32.95 -0.09 31.91 C-0.09 28.73 -0.08 25.55 -0.06 22.38 C-0.06 20.2 -0.05 18.03 -0.05 15.86 C-0.04 10.58 -0.02 5.29 0 0 Z " fill="#3F2DBA" transform="translate(170,192)"/>
<path d="M0 0 C5.13 7.7 4.18 17.81 4.01 26.71 C3.98 28.81 3.99 30.9 4 33 C4.33 33.33 4.66 33.66 5 34 C5.07 36.86 5.09 39.7 5.06 42.56 C5.06 43.37 5.05 44.18 5.05 45.01 C5.04 47 5.02 49 5 51 C4.67 51 4.34 51 4 51 C2.68 41.56 1.72 32.2 1.34 22.68 C1.52 19.04 1.52 19.04 0 16 C-0.07 13.3 -0.09 10.63 -0.06 7.94 C-0.06 7.18 -0.05 6.42 -0.05 5.64 C-0.04 3.76 -0.02 1.88 0 0 Z " fill="#6CD6E2" transform="translate(119,49)"/>
<path d="M0 0 C31.35 0 62.7 0 95 0 C95 0.33 95 0.66 95 1 C63.65 1 32.3 1 0 1 C0 0.67 0 0.34 0 0 Z " fill="#C0BBC2" transform="translate(383,110)"/>
<path d="M0 0 C0.99 0 1.98 0 3 0 C3.66 3.63 4.32 7.26 5 11 C4.34 11 3.68 11 3 11 C2.95 11.6 2.9 12.2 2.85 12.82 C2.62 15.53 2.37 18.23 2.12 20.94 C2.05 21.88 1.97 22.83 1.89 23.8 C1.8 24.7 1.72 25.6 1.63 26.53 C1.56 27.36 1.49 28.19 1.41 29.05 C1.28 29.69 1.14 30.34 1 31 C0.34 31.33 -0.32 31.66 -1 32 C-1.03 27.79 -1.05 23.58 -1.06 19.38 C-1.07 18.19 -1.08 17 -1.09 15.77 C-1.09 14.62 -1.09 13.46 -1.1 12.27 C-1.1 11.22 -1.11 10.16 -1.11 9.07 C-1 5.97 -0.58 3.05 0 0 Z " fill="#3A32B9" transform="translate(222,78)"/>
<path d="M0 0 C0.33 0 0.66 0 1 0 C1.36 11.65 0.89 23.04 -0.38 34.62 C-0.56 36.41 -0.56 36.41 -0.76 38.24 C-0.95 39.9 -0.95 39.9 -1.15 41.6 C-1.26 42.59 -1.38 43.59 -1.5 44.61 C-2 47 -2 47 -4 49 C-4.26 38.56 -4.34 28.03 -1 18 C-0.86 16.59 -0.75 15.18 -0.68 13.77 C-0.64 12.97 -0.6 12.16 -0.56 11.34 C-0.52 10.5 -0.48 9.67 -0.44 8.81 C-0.39 7.97 -0.35 7.12 -0.31 6.25 C-0.2 4.17 -0.1 2.08 0 0 Z " fill="#3F2DBA" transform="translate(323,137)"/>
<path d="M0 0 C30.03 0 60.06 0 91 0 C91 0.33 91 0.66 91 1 C60.97 1 30.94 1 0 1 C0 0.67 0 0.34 0 0 Z " fill="#C2BDC3" transform="translate(663,110)"/>
<path d="M0 0 C0.33 0 0.66 0 1 0 C1 8.25 1 16.5 1 25 C0.34 24.01 -0.32 23.02 -1 22 C-1 24.31 -1 26.62 -1 29 C-1.66 28.67 -2.32 28.34 -3 28 C-3.41 25.59 -3.41 25.59 -3.63 22.43 C-3.72 21.31 -3.8 20.18 -3.89 19.03 C-3.97 17.84 -4.04 16.66 -4.12 15.44 C-4.25 13.66 -4.25 13.66 -4.39 11.84 C-4.6 8.89 -4.8 5.95 -5 3 C-3 4 -3 4 -1 7 C-0.67 4.69 -0.34 2.38 0 0 Z " fill="#A229DA" transform="translate(171,111)"/>
<path d="M0 0 C0.66 0.33 1.32 0.66 2 1 C2.06 5.27 2.09 9.54 2.12 13.81 C2.14 15.01 2.16 16.2 2.18 17.44 C2.22 24.86 1.64 31.76 0 39 C-0.33 39 -0.66 39 -1 39 C-1.02 34.89 -1.04 30.78 -1.05 26.68 C-1.06 25.28 -1.07 23.89 -1.08 22.5 C-1.12 14.93 -1.06 7.51 0 0 Z " fill="#58D3F2" transform="translate(229,110)"/>
<path d="M0 0 C1.67 -0.04 3.33 -0.04 5 0 C5.33 0.33 5.66 0.66 6 1 C5.93 2.63 5.79 4.25 5.62 5.88 C5.02 12.35 4.68 18.83 4.39 25.32 C4.19 29.62 3.82 33.76 3 38 C2.67 38 2.34 38 2 38 C2.01 37.3 2.02 36.59 2.03 35.86 C2.07 32.62 2.1 29.37 2.12 26.12 C2.14 25.02 2.16 23.91 2.18 22.77 C2.21 16.63 1.86 11 0.43 5.02 C0 3 0 3 0 0 Z M2 2 C2.99 3.48 2.99 3.48 4 5 C4 4.01 4 3.02 4 2 C3.34 2 2.68 2 2 2 Z M3 7 C3 8.65 3 10.3 3 12 C3.33 12 3.66 12 4 12 C4 10.35 4 8.7 4 7 C3.67 7 3.34 7 3 7 Z " fill="#C77FDF" transform="translate(335,30)"/>
<path d="M0 0 C0.66 0.33 1.32 0.66 2 1 C2 20.14 2 39.28 2 59 C1.67 59 1.34 59 1 59 C0.97 57.86 0.95 56.73 0.92 55.56 C0.83 51.35 0.73 47.14 0.63 42.93 C0.58 41.11 0.54 39.28 0.5 37.46 C0.44 34.84 0.38 32.22 0.32 29.61 C0.3 28.79 0.28 27.97 0.27 27.13 C0.18 23.86 0.04 21.13 -1 18 C-1.02 16.01 -1.02 16.01 -0.88 13.77 C-0.83 12.97 -0.78 12.16 -0.73 11.34 C-0.68 10.5 -0.62 9.67 -0.56 8.81 C-0.48 7.55 -0.48 7.55 -0.4 6.25 C-0.27 4.17 -0.14 2.08 0 0 Z " fill="#57DBEF" transform="translate(288,36)"/>
<path d="M0 0 C2.19 4.39 2 6.2 2 11 C2.55 14.36 3.25 17.68 4 21 C3.34 21 2.68 21 2 21 C2 24.3 2 27.6 2 31 C1.67 31 1.34 31 1 31 C0.67 29.02 0.34 27.04 0 25 C-0.33 25 -0.66 25 -1 25 C-2.04 19.95 -2.1 15.13 -2 10 C-1.67 10 -1.34 10 -1 10 C-0.67 6.7 -0.34 3.4 0 0 Z " fill="#AC28DA" transform="translate(271,113)"/>
<path d="M0 0 C1.32 0 2.64 0 4 0 C4.2 2.05 4.39 4.1 4.59 6.15 C4.72 6.76 4.86 7.37 5 8 C5.66 8.33 6.32 8.66 7 9 C6.01 9 5.02 9 4 9 C4 11.64 4 14.28 4 17 C2.06 16.38 2.06 16.38 0 15 C-1.31 10.42 -1.16 5.73 -1 1 C-0.67 0.67 -0.34 0.34 0 0 Z " fill="#D522EA" transform="translate(256,34)"/>
<path d="M0 0 C9.9 0 19.8 0 30 0 C30 0.33 30 0.66 30 1 C22.7 2.78 15.87 3.26 8.38 3.12 C6.87 3.11 6.87 3.11 5.33 3.1 C2.89 3.07 0.44 3.04 -2 3 C-1.34 2.67 -0.68 2.34 0 2 C0 1.34 0 0.68 0 0 Z " fill="#004289" transform="translate(309,29)"/>
<path d="M0 0 C0.33 0 0.66 0 1 0 C-0.25 29.25 -0.25 29.25 -4 33 C-4.12 26.13 -3.81 19.4 -3.12 12.56 C-3.05 11.68 -2.97 10.8 -2.89 9.88 C-2.8 9.04 -2.72 8.19 -2.63 7.32 C-2.56 6.56 -2.49 5.8 -2.41 5.02 C-2 3 -2 3 0 0 Z " fill="#3F2DBA" transform="translate(327,103)"/>
<path d="M0 0 C0.33 0 0.66 0 1 0 C1.26 9.44 1.12 18.75 -1 28 C-1.66 28.66 -2.32 29.32 -3 30 C-3.62 7.24 -3.62 7.24 0 0 Z " fill="#3F2DBA" transform="translate(318,204)"/>
<path d="M0 0 C11.88 0 23.76 0 36 0 C31.6 4.4 22.21 3.05 16.25 3.06 C14.83 3.05 13.42 3.03 12 3 C12 2.67 12 2.34 12 2 C8.04 1.67 4.08 1.34 0 1 C0 0.67 0 0.34 0 0 Z " fill="#004795" transform="translate(130,29)"/>
<path d="M0 0 C20.13 0 40.26 0 61 0 C61 0.33 61 0.66 61 1 C40.87 1 20.74 1 0 1 C0 0.67 0 0.34 0 0 Z " fill="#7E7D81" transform="translate(688,168)"/>
<path d="M0 0 C0.33 0 0.66 0 1 0 C1.06 0.95 1.12 1.91 1.18 2.89 C1.27 4.14 1.35 5.4 1.44 6.69 C1.52 7.93 1.6 9.17 1.68 10.45 C1.9 13.83 1.9 13.83 2.56 16.38 C3.23 20.38 2.84 24.28 2.56 28.31 C2.51 29.15 2.46 29.98 2.4 30.85 C2.28 32.9 2.14 34.95 2 37 C-0.46 33.31 -0.26 30.53 -0.2 26.27 C-0.19 25.52 -0.19 24.77 -0.19 24 C-0.18 21.6 -0.15 19.21 -0.12 16.81 C-0.11 15.19 -0.11 13.56 -0.1 11.94 C-0.08 7.96 -0.04 3.98 0 0 Z " fill="#7ACEED" transform="translate(279,174)"/>
<path d="M0 0 C0.33 0 0.66 0 1 0 C1 6.93 1 13.86 1 21 C0.34 21 -0.32 21 -1 21 C-1 27.6 -1 34.2 -1 41 C-1.33 41 -1.66 41 -2 41 C-2.23 37.71 -2.43 34.42 -2.62 31.12 C-2.72 29.75 -2.72 29.75 -2.82 28.34 C-3.14 22.68 -2.76 17.72 -1.5 12.19 C-0.91 9.6 -0.6 7.03 -0.38 4.38 C-0.3 3.54 -0.23 2.7 -0.15 1.84 C-0.1 1.23 -0.05 0.62 0 0 Z " fill="#C4E9EC" transform="translate(285,101)"/>
<path d="M0 0 C18.81 0 37.62 0 57 0 C57 0.33 57 0.66 57 1 C38.19 1 19.38 1 0 1 C0 0.67 0 0.34 0 0 Z " fill="#000002" transform="translate(147,300)"/>
<path d="M0 0 C0.33 0 0.66 0 1 0 C1.06 0.92 1.12 1.83 1.18 2.77 C1.27 3.96 1.35 5.15 1.44 6.38 C1.52 7.56 1.6 8.74 1.68 9.96 C1.81 12.92 1.81 12.92 3 15 C2.01 15 1.02 15 0 15 C0 19.29 0 23.58 0 28 C-0.33 27.01 -0.66 26.02 -1 25 C-1.66 25 -2.32 25 -3 25 C-3.19 23.54 -3.38 22.08 -3.56 20.62 C-3.67 19.81 -3.77 19 -3.88 18.16 C-4 16 -4 16 -3 14 C-2.34 14 -1.68 14 -1 14 C-0.67 9.38 -0.34 4.76 0 0 Z " fill="#D73AEA" transform="translate(271,98)"/>
<path d="M0 0 C0 5.28 0 10.56 0 16 C-0.99 16 -1.98 16 -3 16 C-4.02 12.93 -4.2 10.65 -4.25 7.44 C-4.28 6.47 -4.3 5.5 -4.33 4.5 C-4.22 3.67 -4.11 2.85 -4 2 C-1 0 -1 0 0 0 Z " fill="#D422EB" transform="translate(316,284)"/>
<path d="M0 0 C0.46 2.02 0.91 4.04 1.37 6.05 C1.9 8.21 1.9 8.21 4 10 C4 11.32 4 12.64 4 14 C2.35 13.67 0.7 13.34 -1 13 C-2.14 8.73 -3 5.44 -3 1 C-1 0 -1 0 0 0 Z " fill="#38B8E2" transform="translate(178,254)"/>
<path d="M0 0 C0.33 0 0.66 0 1 0 C1.7 2.73 2.39 5.46 3.06 8.19 C3.26 8.96 3.46 9.73 3.67 10.52 C4.68 14.67 5.34 17.8 4 22 C2 21 2 21 0.88 18.31 C-0.72 12.39 -0.15 6.08 0 0 Z " fill="#412CBA" transform="translate(264,101)"/>
<path d="M0 0 C0.33 0 0.66 0 1 0 C1 5.28 1 10.56 1 16 C0.34 16 -0.32 16 -1 16 C-1.33 16.66 -1.66 17.32 -2 18 C-2.33 13.05 -2.66 8.1 -3 3 C-2.34 3 -1.68 3 -1 3 C-0.67 2.01 -0.34 1.02 0 0 Z " fill="#3F4144" transform="translate(753,173)"/>
<path d="M0 0 C0.33 0 0.66 0 1 0 C1 4.62 1 9.24 1 14 C0.01 14.33 -0.98 14.66 -2 15 C-2.99 10.71 -3.98 6.42 -5 2 C-4.34 1.67 -3.68 1.34 -3 1 C-2.34 2.32 -1.68 3.64 -1 5 C-0.67 3.35 -0.34 1.7 0 0 Z " fill="#B527E0" transform="translate(269,98)"/>
<path d="M0 0 C0.66 0 1.32 0 2 0 C2.66 5.94 3.32 11.88 4 18 C3.34 18 2.68 18 2 18 C1.67 15.69 1.34 13.38 1 11 C0.01 11.5 0.01 11.5 -1 12 C-2.37 7.48 -1.47 4.41 0 0 Z " fill="#B42AE0" transform="translate(216,240)"/>
<path d="M0 0 C0.66 0 1.32 0 2 0 C2 1.98 2 3.96 2 6 C2.66 6 3.32 6 4 6 C4.33 6.99 4.66 7.98 5 9 C4.67 9.33 4.34 9.66 4 10 C3.93 11.52 3.92 13.04 3.94 14.56 C3.95 15.39 3.96 16.22 3.96 17.07 C3.98 17.7 3.99 18.34 4 19 C3.34 19 2.68 19 2 19 C1.93 18.04 1.93 18.04 1.85 17.07 C1.78 16.24 1.7 15.41 1.62 14.56 C1.56 13.74 1.49 12.92 1.41 12.07 C1.21 11.04 1.21 11.04 1 10 C0.34 9.67 -0.32 9.34 -1 9 C-0.67 6.03 -0.34 3.06 0 0 Z " fill="#BA27E2" transform="translate(211,275)"/>
<path d="M0 0 C12.87 0 25.74 0 39 0 C39 0.33 39 0.66 39 1 C26.13 1 13.26 1 0 1 C0 0.67 0 0.34 0 0 Z " fill="#000002" transform="translate(264,300)"/>
<path d="M0 0 C0.33 0 0.66 0 1 0 C1.06 0.71 1.12 1.42 1.18 2.15 C1.27 3.07 1.35 3.99 1.44 4.94 C1.52 5.85 1.6 6.77 1.68 7.71 C1.76 9.96 1.76 9.96 3 11 C3.07 13.86 3.09 16.7 3.06 19.56 C3.06 20.37 3.05 21.18 3.05 22.01 C3.04 24 3.02 26 3 28 C2.67 28 2.34 28 2 28 C0.67 18.61 -0.32 9.51 0 0 Z " fill="#CFF2F4" transform="translate(121,72)"/>
<path d="M0 0 C2 2 2 2 2.2 5.04 C2.17 6.22 2.15 7.41 2.12 8.62 C2.11 9.81 2.09 11 2.07 12.23 C2.05 13.14 2.02 14.06 2 15 C1.01 14.34 0.02 13.68 -1 13 C-1.33 10.21 -1.33 10.21 -1.25 6.94 C-1.23 5.85 -1.22 4.77 -1.2 3.65 C-1 1 -1 1 0 0 Z " fill="#7DF2F6" transform="translate(135,236)"/>
<path d="M0 0 C0.99 0.33 1.98 0.66 3 1 C3 5.29 3 9.58 3 14 C2.67 13.34 2.34 12.68 2 12 C1.34 12 0.68 12 0 12 C0 8.04 0 4.08 0 0 Z " fill="#8BF4F9" transform="translate(117,30)"/>
<path d="M0 0 C0.33 0 0.66 0 1 0 C1.2 2.23 1.38 4.46 1.56 6.69 C1.67 7.93 1.77 9.17 1.88 10.45 C1.98 13.56 1.77 16.01 1 19 C-1 17 -1 17 -1.23 14.86 C-1.15 9.82 -0.87 4.98 0 0 Z " fill="#B4AEB5" transform="translate(382,229)"/>
<path d="M0 0 C0.66 0 1.32 0 2 0 C2.08 1.94 2.14 3.87 2.19 5.81 C2.24 7.43 2.24 7.43 2.29 9.08 C2 12 2 12 -1 15 C-0.67 10.05 -0.34 5.1 0 0 Z " fill="#A828DC" transform="translate(219,199)"/>
<path d="M0 0 C0.33 0 0.66 0 1 0 C1 4.95 1 9.9 1 15 C-0.67 13.33 -2.33 11.67 -4 10 C-3.34 9.01 -2.68 8.02 -2 7 C-1.29 4.68 -0.62 2.35 0 0 Z " fill="#A428DB" transform="translate(265,70)"/>
<path d="M0 0 C0.66 0.33 1.32 0.66 2 1 C2.59 3.65 2.74 6.29 3 9 C1.68 9.33 0.36 9.66 -1 10 C-1.12 2.25 -1.12 2.25 0 0 Z " fill="#0052A9" transform="translate(183,259)"/>
<path d="M0 0 C0.33 0 0.66 0 1 0 C1 7.92 1 15.84 1 24 C0.34 24 -0.32 24 -1 24 C-1.33 22.02 -1.66 20.04 -2 18 C-1.34 18 -0.68 18 0 18 C0 12.06 0 6.12 0 0 Z " fill="#33BFE5" transform="translate(131,158)"/>
<path d="M0 0 C0.66 0 1.32 0 2 0 C2.33 0.99 2.66 1.98 3 3 C2.67 3.33 2.34 3.66 2 4 C1.93 6.35 1.92 8.71 1.94 11.06 C1.95 12.35 1.96 13.64 1.96 14.97 C1.98 15.97 1.99 16.97 2 18 C1.34 18 0.68 18 0 18 C0 12.06 0 6.12 0 0 Z " fill="#AF28DF" transform="translate(324,180)"/>
<path d="M0 0 C1.13 0.02 2.27 0.04 3.44 0.06 C3.44 0.72 3.44 1.38 3.44 2.06 C2.45 2.39 1.46 2.72 0.44 3.06 C0.11 5.7 -0.22 8.34 -0.56 11.06 C-0.89 11.06 -1.22 11.06 -1.56 11.06 C-1.64 10.11 -1.64 10.11 -1.71 9.13 C-1.79 8.3 -1.86 7.48 -1.94 6.62 C-2.01 5.8 -2.08 4.98 -2.15 4.13 C-2.29 3.45 -2.42 2.77 -2.56 2.06 C-3.22 1.73 -3.88 1.4 -4.56 1.06 C-3.56 0.06 -3.56 0.06 0 0 Z " fill="#5729B2" transform="translate(255.5625,31.9375)"/>
<path d="M0 0 C0.66 0 1.32 0 2 0 C2.33 1.65 2.66 3.3 3 5 C2.34 5 1.68 5 1 5 C1 8.3 1 11.6 1 15 C0.67 15 0.34 15 0 15 C-0.22 13.61 -0.22 13.61 -0.44 12.19 C-0.92 8.99 -0.92 8.99 -2 6 C-1.06 2.81 -1.06 2.81 0 0 Z " fill="#BB27E2" transform="translate(272,129)"/>
<path d="M0 0 C2.85 2.85 2.68 5.02 3 9 C2.8 11.71 2.42 14.31 2 17 C1.67 17 1.34 17 1 17 C0.17 11.28 -0.12 5.78 0 0 Z " fill="#D162E9" transform="translate(322,217)"/>
<path d="M0 0 C0.99 0 1.98 0 3 0 C3 2.97 3 5.94 3 9 C2.01 8.67 1.02 8.34 0 8 C0 5.36 0 2.72 0 0 Z " fill="#3C2EB9" transform="translate(171,240)"/>
<path d="M0 0 C0.33 0 0.66 0 1 0 C1 6.6 1 13.2 1 20 C0.67 20 0.34 20 0 20 C0 13.4 0 6.8 0 0 Z " fill="#F6F7F9" transform="translate(617,229)"/>
<path d="M0 0 C0.33 0 0.66 0 1 0 C1 6.27 1 12.54 1 19 C0.67 19 0.34 19 0 19 C0 12.73 0 6.46 0 0 Z " fill="#F4F4F7" transform="translate(760,114)"/>
<path d="M0 0 C6.27 0 12.54 0 19 0 C19 0.33 19 0.66 19 1 C12.73 1 6.46 1 0 1 C0 0.67 0 0.34 0 0 Z " fill="#79787C" transform="translate(814,110)"/>
<path d="M0 0 C0.33 0 0.66 0 1 0 C1 5.94 1 11.88 1 18 C0.67 18 0.34 18 0 18 C0 12.06 0 6.12 0 0 Z " fill="#CEC7CF" transform="translate(481,114)"/>
<path d="M0 0 C4.95 0 9.9 0 15 0 C15 0.33 15 0.66 15 1 C10.05 1 5.1 1 0 1 C0 0.67 0 0.34 0 0 Z " fill="#F6F7F9" transform="translate(911,110)"/>
<path d="M0 0 C3.63 0 7.26 0 11 0 C11 0.33 11 0.66 11 1 C7.37 1 3.74 1 0 1 C0 0.67 0 0.34 0 0 Z " fill="#C9CACC" transform="translate(544,110)"/>
<path d="M0 0 C0.33 0 0.66 0 1 0 C1 2.64 1 5.28 1 8 C0.67 8 0.34 8 0 8 C0 5.36 0 2.72 0 0 Z " fill="#000002" transform="translate(320,275)"/>
<path d="M0 0 C0.33 0 0.66 0 1 0 C1 2.64 1 5.28 1 8 C0.67 8 0.34 8 0 8 C0 5.36 0 2.72 0 0 Z " fill="#000002" transform="translate(335,94)"/>
<path d="M0 0 C2.31 0 4.62 0 7 0 C7 0.33 7 0.66 7 1 C4.69 1 2.38 1 0 1 C0 0.67 0 0.34 0 0 Z " fill="#0A0A0C" transform="translate(208,300)"/>
<path d="M0 0 C2.31 0 4.62 0 7 0 C7 0.33 7 0.66 7 1 C4.69 1 2.38 1 0 1 C0 0.67 0 0.34 0 0 Z " fill="#AFB0B2" transform="translate(535,110)"/>
<path d="M0 0 C0.33 0 0.66 0 1 0 C1 1.65 1 3.3 1 5 C0.67 5 0.34 5 0 5 C0 3.35 0 1.7 0 0 Z " fill="#000002" transform="translate(337,70)"/>
<path d="M0 0 C1 4 1 4 1 4 Z " fill="#6CD5ED" transform="translate(230,196)"/>
<path d="M0 0 C1 4 1 4 1 4 Z " fill="#F6F7F9" transform="translate(281,131)"/>
<path d="" fill="#000002" transform="translate(0,0)"/>
<path d="" fill="#F6F7F9" transform="translate(0,0)"/>
<path d="M0 0 C3 1 3 1 3 1 Z " fill="#0049AD" transform="translate(248,29)"/>
<path d="M0 0 C3 1 3 1 3 1 Z " fill="#0049AD" transform="translate(242,29)"/>
<path d="M0 0 C2 1 2 1 2 1 Z " fill="#000002" transform="translate(311,300)"/>
<path d="" fill="#3ECAE9" transform="translate(0,0)"/>
<path d="" fill="#000002" transform="translate(0,0)"/>
<path d="" fill="#3ECAE9" transform="translate(0,0)"/>
<path d="" fill="#000002" transform="translate(0,0)"/>
<path d="M0 0 C2 1 2 1 2 1 Z " fill="#000002" transform="translate(927,110)"/>
<path d="" fill="#000002" transform="translate(0,0)"/>
<path d="" fill="#3ECAE9" transform="translate(0,0)"/>
<path d="" fill="#3ECAE9" transform="translate(0,0)"/>
<path d="M0 0 C2 1 2 1 2 1 Z " fill="#F6F7F9" transform="translate(204,29)"/>
<path d="" fill="#000002" transform="translate(0,0)"/>
<path d="" fill="#06EEF9" transform="translate(0,0)"/>
<path d="" fill="#000002" transform="translate(0,0)"/>
<path d="" fill="#39393C" transform="translate(0,0)"/>
<path d="" fill="#F6F7F9" transform="translate(0,0)"/>
<path d="" fill="#39393C" transform="translate(0,0)"/>
<path d="" fill="#39393C" transform="translate(0,0)"/>
<path d="" fill="#06EEF9" transform="translate(0,0)"/>
<path d="" fill="#8C8B8F" transform="translate(0,0)"/>
<path d="" fill="#F6F7F9" transform="translate(0,0)"/>
<path d="" fill="#F6F7F9" transform="translate(0,0)"/>
<path d="" fill="#8C8B8F" transform="translate(0,0)"/>
<path d="" fill="#585C5F" transform="translate(0,0)"/>
<path d="" fill="#F6F7F9" transform="translate(0,0)"/>
<path d="" fill="#F6F7F9" transform="translate(0,0)"/>
<path d="" fill="#F6F7F9" transform="translate(0,0)"/>
<path d="" fill="#F6F7F9" transform="translate(0,0)"/>
<path d="" fill="#3ECAE9" transform="translate(0,0)"/>
<path d="" fill="#3ECAE9" transform="translate(0,0)"/>
<path d="" fill="#F6F7F9" transform="translate(0,0)"/>
<path d="" fill="#D2CBD3" transform="translate(0,0)"/>
<path d="" fill="#39393C" transform="translate(0,0)"/>
<path d="" fill="#F6F7F9" transform="translate(0,0)"/>
<path d="" fill="#F6F7F9" transform="translate(0,0)"/>
<path d="" fill="#000002" transform="translate(0,0)"/>
<path d="" fill="#000002" transform="translate(0,0)"/>
<path d="" fill="#000002" transform="translate(0,0)"/>
<path d="" fill="#06EEF9" transform="translate(0,0)"/>
<path d="" fill="#39393C" transform="translate(0,0)"/>
<path d="" fill="#000002" transform="translate(0,0)"/>
<path d="" fill="#9EF9FA" transform="translate(0,0)"/>
<path d="" fill="#3ECAE9" transform="translate(0,0)"/>
<path d="" fill="#585C5F" transform="translate(0,0)"/>
</svg>
